<svg width="22" height="22" viewBox="0 0 22 22" fill="none" xmlns="http://www.w3.org/2000/svg">
<path d="M0 22L1.5538 16.3506C0.594993 14.6969 0.0911831 12.8223 0.0921042 10.9001C0.0948673 4.89042 5.00862 0 11.0461 0C13.9759 0.000916667 16.7261 1.13667 18.7948 3.19733C20.8625 5.258 22.0009 7.997 22 10.9102C21.9972 16.9208 17.0835 21.8112 11.0461 21.8112C9.21318 21.8103 7.40702 21.3528 5.80717 20.4838L0 22ZM6.07611 18.5103C7.61978 19.4223 9.09344 19.9687 11.0424 19.9696C16.0602 19.9696 20.1478 15.9051 20.1505 10.9083C20.1524 5.9015 16.0841 1.8425 11.0497 1.84067C6.02822 1.84067 1.9434 5.90517 1.94156 10.901C1.94063 12.9406 2.54115 14.4677 3.54969 16.0655L2.62957 19.4095L6.07611 18.5103ZM16.564 13.5016C16.4959 13.3879 16.3135 13.3201 16.039 13.1835C15.7655 13.0469 14.4198 12.3878 14.1684 12.2971C13.9179 12.2063 13.7355 12.1605 13.5522 12.4337C13.3698 12.7059 12.8448 13.3201 12.6855 13.5016C12.5262 13.6831 12.3659 13.706 12.0924 13.5694C11.8188 13.4328 10.9364 13.1459 9.89106 12.2173C9.07778 11.495 8.52792 10.6031 8.36858 10.3299C8.20924 10.0577 8.352 9.91008 8.48832 9.77442C8.61174 9.6525 8.76187 9.45633 8.8991 9.29683C9.03818 9.13917 9.08331 9.0255 9.17542 8.84308C9.2666 8.66158 9.22147 8.50208 9.15239 8.3655C9.08331 8.22983 8.53621 6.88875 8.30872 6.34333C8.08582 5.81258 7.86017 5.88408 7.69254 5.87583L7.16755 5.86667C6.98518 5.86667 6.6886 5.9345 6.43808 6.20767C6.18756 6.48083 5.4802 7.139 5.4802 8.48008C5.4802 9.82117 6.46111 11.1164 6.59742 11.2979C6.73466 11.4794 8.527 14.2313 11.2726 15.411C11.9256 15.6915 12.4359 15.8593 12.8329 15.9848C13.4887 16.192 14.0855 16.1627 14.5571 16.093C15.083 16.0151 16.1763 15.4339 16.4047 14.7978C16.6331 14.1607 16.6331 13.6153 16.564 13.5016Z" fill="#FBFCFB"/>
</svg>
