<svg width="100" height="122" viewBox="0 0 100 122" fill="none" xmlns="http://www.w3.org/2000/svg">
<mask id="mask0_171_3025" style="mask-type:luminance" maskUnits="userSpaceOnUse" x="0" y="0" width="100" height="122">
<path d="M100 0H0V121.512H100V0Z" fill="white"/>
</mask>
<g mask="url(#mask0_171_3025)">
<path d="M99.9958 37.0176C99.9674 36.6289 99.9288 36.2218 99.8819 35.8013C99.6222 33.5563 99.1012 31.4588 98.3322 29.5673C96.5999 25.3236 93.6865 22.1673 89.6706 20.1836C86.3886 18.5669 82.346 17.7427 77.655 17.7309L77.0553 16.6017L76.9799 16.4744C76.2879 15.4709 75.5089 14.5327 74.7684 13.6665C73.3494 12.0163 72.0979 10.7816 70.8313 9.7881C69.099 8.43106 67.0936 7.38899 64.8721 6.69037C63.4363 6.24138 61.8313 5.88285 59.9684 5.59469C59.4456 5.5126 58.8995 5.45229 58.3366 5.39197C57.3716 5.2881 56.3731 5.18088 55.398 4.93125C53.8717 4.53755 52.4846 3.63286 51.4928 2.3864C51.3219 2.17028 51.1577 1.9374 51.0103 1.68777L50 -0.000976562L48.9898 1.68945C48.8407 1.93908 48.6798 2.17195 48.5123 2.38472C47.5188 3.63453 46.13 4.53922 44.6054 4.93125C43.627 5.18256 42.6301 5.28811 41.6635 5.39365C41.1022 5.45396 40.5561 5.51428 40.035 5.59637C38.167 5.88453 36.5637 6.24305 35.1296 6.69205C32.9047 7.39067 30.8993 8.43441 29.1704 9.78977C27.8988 10.7866 26.649 12.0197 25.2333 13.6682C24.5313 14.4858 23.7205 15.4558 23.0185 16.4811L22.3484 17.7309C17.6557 17.7427 13.6131 18.5686 10.3294 20.1836C7.52318 21.5692 5.23633 23.5444 3.53249 26.0574C1.70804 28.743 0.560422 32.0217 0.126506 35.8013C0.0728946 36.2704 0.0310108 36.7143 0.000854492 37.2287V121.509H100.003V40.7251L99.9958 37.0176ZM2.4988 36.1079C2.88581 32.7555 3.88432 29.8722 5.47255 27.5384C6.95524 25.3488 8.87351 23.6952 11.3363 22.4806C14.3268 21.0096 18.0678 20.2641 22.4556 20.2641H23.7439L24.9921 17.9102C25.6153 17.0055 26.3558 16.1209 27.0008 15.372C28.3093 13.8475 29.4485 12.72 30.5911 11.8253C32.0955 10.6442 33.8496 9.73448 35.8048 9.11963C37.13 8.70582 38.6244 8.37243 40.3802 8.10102C40.871 8.02395 41.382 7.97034 41.9047 7.9117C42.9468 7.80113 44.0274 7.68386 45.165 7.39402C47.0129 6.91822 48.7117 5.87113 49.9983 4.42195C51.285 5.87113 52.9838 6.9199 54.8351 7.39402C55.9676 7.68386 57.0466 7.80113 58.0886 7.9117C58.6147 7.97034 59.1223 8.02395 59.6165 8.10102C61.369 8.37243 62.865 8.70582 64.1886 9.11963C66.1454 9.73281 67.8995 10.6425 69.4039 11.8253C70.5432 12.72 71.6841 13.8458 72.9942 15.372C73.6744 16.1645 74.3864 17.0206 75.0013 17.9068L76.2528 20.2641H77.5411C81.9289 20.2641 85.6682 21.0079 88.6587 22.4806C92.1753 24.2179 94.6213 26.8649 96.1341 30.5725C96.8127 32.2411 97.2751 34.1041 97.5063 36.1079C97.5498 36.4898 97.585 36.8601 97.6068 37.1147V108.017H88.9921V102.532H76.1372V96.8929H23.8595V102.53H11.0046V108.016H2.38991V40.7033L2.38655 37.3208C2.41336 36.9338 2.45189 36.53 2.4988 36.1079Z" fill="#04814F"/>
</g>
<mask id="mask1_171_3025" style="mask-type:luminance" maskUnits="userSpaceOnUse" x="0" y="0" width="100" height="122">
<path d="M100 0H0V121.512H100V0Z" fill="white"/>
</mask>
<g mask="url(#mask1_171_3025)">
<path d="M95.8104 90.8373L86.6312 52.4316L49.7751 46.6885L13.3731 52.4316L4.19387 90.8373L4.15869 90.9847H4.30947H13.8003C14.179 90.9965 14.5626 91.0032 14.9563 91.0032C15.2395 91.0032 15.5343 90.9914 15.8225 90.9847H47.3174C47.361 91.9363 47.9239 92.5076 48.4751 92.8176C49.0514 93.1443 49.616 93.2146 49.6227 93.2163H49.6311H49.6394H50.3632H50.3699H50.3783C50.3866 93.2146 50.9512 93.1443 51.5259 92.8176C52.0771 92.5076 52.6383 91.938 52.6836 90.9847H84.1651C84.4566 90.9931 84.7498 91.0032 85.0312 91.0032C85.4249 91.0032 85.8086 90.9948 86.1889 90.9847H95.6948H95.8473L95.8104 90.8373Z" fill="#E9CA5E"/>
</g>
<mask id="mask2_171_3025" style="mask-type:luminance" maskUnits="userSpaceOnUse" x="0" y="0" width="100" height="122">
<path d="M100 0H0V121.512H100V0Z" fill="white"/>
</mask>
<g mask="url(#mask2_171_3025)">
<path d="M95.8104 90.8373L86.6312 52.4316L49.7751 46.6885L13.3731 52.4316L4.19387 90.8373L4.15869 90.9847H4.30947H13.8003C14.179 90.9965 14.5626 91.0032 14.9563 91.0032C15.2395 91.0032 15.5343 90.9914 15.8225 90.9847H47.3174C47.361 91.9363 47.9239 92.5076 48.4751 92.8176C49.0514 93.1443 49.616 93.2146 49.6227 93.2163H49.6311H49.6394H50.3632H50.3699H50.3783C50.3866 93.2146 50.9512 93.1443 51.5259 92.8176C52.0771 92.5076 52.6383 91.938 52.6836 90.9847H84.1651C84.4566 90.9931 84.7498 91.0032 85.0312 91.0032C85.4249 91.0032 85.8086 90.9948 86.1889 90.9847H95.6948H95.8473L95.8104 90.8373Z" stroke="#231F20" stroke-width="1.4594" stroke-miterlimit="10"/>
</g>
<mask id="mask3_171_3025" style="mask-type:luminance" maskUnits="userSpaceOnUse" x="0" y="0" width="100" height="122">
<path d="M100 0H0V121.512H100V0Z" fill="white"/>
</mask>
<g mask="url(#mask3_171_3025)">
<path d="M84.1965 50.2533L82.5362 49.9384C76.4849 48.7941 61.1722 43.9574 50.0009 46.1018C38.8297 43.9574 23.517 48.7941 17.4656 49.9384L15.8054 50.2533L5.59912 89.7062C15.6998 92.2661 23.7918 90.4031 28.7072 87.6756C37.9836 82.5273 50.0026 89.996 50.0026 89.996C50.0026 89.996 62.0199 82.5273 71.2997 87.6756C76.2151 90.4031 84.3054 92.2661 94.4061 89.7062L84.1965 50.2533Z" fill="#E9CA5E"/>
</g>
<mask id="mask4_171_3025" style="mask-type:luminance" maskUnits="userSpaceOnUse" x="0" y="0" width="100" height="122">
<path d="M100 0H0V121.512H100V0Z" fill="white"/>
</mask>
<g mask="url(#mask4_171_3025)">
<path d="M84.1965 50.2533L82.5362 49.9384C76.4849 48.7941 61.1722 43.9574 50.0009 46.1018C38.8297 43.9574 23.517 48.7941 17.4656 49.9384L15.8054 50.2533L5.59912 89.7062C15.6998 92.2661 23.7918 90.4031 28.7072 87.6756C37.9836 82.5273 50.0026 89.996 50.0026 89.996C50.0026 89.996 62.0199 82.5273 71.2997 87.6756C76.2151 90.4031 84.3054 92.2661 94.4061 89.7062L84.1965 50.2533Z" stroke="#231F20" stroke-width="1.4594" stroke-miterlimit="10"/>
</g>
<mask id="mask5_171_3025" style="mask-type:luminance" maskUnits="userSpaceOnUse" x="0" y="0" width="100" height="122">
<path d="M100 0H0V121.512H100V0Z" fill="white"/>
</mask>
<g mask="url(#mask5_171_3025)">
<path d="M81.5219 47.9217C81.5219 47.9217 61.6925 42.063 50.0102 45.732C50.0069 45.732 50.0035 45.7269 50.0002 45.7269C49.9968 45.7269 49.9935 45.732 49.9918 45.732C38.3079 42.063 18.4801 47.9217 18.4801 47.9217L7.70764 88.7667C14.7575 91.3032 21.9113 89.3682 25.6607 87.7732C39.6583 79.3378 50.0002 89.7099 50.0002 89.7099C50.0002 89.7099 60.3405 79.3378 74.3397 87.7732C78.0908 89.3682 85.2445 91.3032 92.2927 88.7667L81.5219 47.9217Z" fill="#E9CA5E"/>
</g>
<mask id="mask6_171_3025" style="mask-type:luminance" maskUnits="userSpaceOnUse" x="0" y="0" width="100" height="122">
<path d="M100 0H0V121.512H100V0Z" fill="white"/>
</mask>
<g mask="url(#mask6_171_3025)">
<path d="M81.5219 47.9217C81.5219 47.9217 61.6925 42.063 50.0102 45.732C50.0069 45.732 50.0035 45.7269 50.0002 45.7269C49.9968 45.7269 49.9935 45.732 49.9918 45.732C38.3079 42.063 18.4801 47.9217 18.4801 47.9217L7.70764 88.7667C14.7575 91.3032 21.9113 89.3682 25.6607 87.7732C39.6583 79.3378 50.0002 89.7099 50.0002 89.7099C50.0002 89.7099 60.3405 79.3378 74.3397 87.7732C78.0908 89.3682 85.2445 91.3032 92.2927 88.7667L81.5219 47.9217Z" stroke="#231F20" stroke-width="1.4594" stroke-miterlimit="10"/>
</g>
<mask id="mask7_171_3025" style="mask-type:luminance" maskUnits="userSpaceOnUse" x="9" y="40" width="82" height="50">
<path d="M20.1179 46.9169L9.724 87.4285C15.7837 91.4929 24.7452 86.7349 24.7485 86.559C39.4715 77.0698 49.9994 89.4373 49.9994 89.4373C49.9994 89.4373 60.5307 77.0698 75.2536 86.559C75.257 86.7332 84.2168 91.4929 90.2765 87.4285L79.8826 46.9169C79.8826 46.9169 74.1764 40.6226 64.7107 40.6226C60.4955 40.6226 55.5364 41.8707 50.0011 45.4777C44.4674 41.8707 39.5067 40.6226 35.2932 40.6226C25.8241 40.6209 20.1179 46.9169 20.1179 46.9169Z" fill="white"/>
</mask>
<g mask="url(#mask7_171_3025)">
<path d="M90.2782 40.6221H9.724V91.4958H90.2782V40.6221Z" fill="url(#paint0_linear_171_3025)"/>
</g>
<mask id="mask8_171_3025" style="mask-type:luminance" maskUnits="userSpaceOnUse" x="0" y="0" width="100" height="122">
<path d="M100 0H0V121.512H100V0Z" fill="white"/>
</mask>
<g mask="url(#mask8_171_3025)">
<path d="M79.8823 46.9185C79.8823 46.9185 67.9656 33.7653 49.9991 45.476C32.036 33.7653 20.1159 46.9185 20.1159 46.9185L9.72034 87.4301C15.7784 91.4962 24.7415 86.7366 24.7432 86.5606C39.4712 77.0731 50.0008 89.4389 50.0008 89.4389C50.0008 89.4389 60.5304 77.0715 75.255 86.559C75.2584 86.7366 84.2181 91.4945 90.2796 87.4285L79.8823 46.9185Z" stroke="#231F20" stroke-width="1.4594" stroke-miterlimit="10"/>
</g>
<path d="M50.0002 89.7096V45.4116" stroke="#020303" stroke-width="1.3271" stroke-miterlimit="10" stroke-linejoin="round"/>
<mask id="mask9_171_3025" style="mask-type:luminance" maskUnits="userSpaceOnUse" x="0" y="0" width="100" height="122">
<path d="M100 0H0V121.512H100V0Z" fill="white"/>
</mask>
<g mask="url(#mask9_171_3025)">
<path d="M49.3128 99.1741L49.4971 98.3867C48.8655 99.0619 48.6427 100.111 48.569 101.126C48.6042 101.424 48.9426 101.578 49.2374 101.501C49.534 101.387 49.9076 101.161 49.9444 100.826C50.2058 100.153 49.797 99.5494 49.3128 99.1741ZM49.7216 100.526C49.4603 100.677 49.162 100.938 48.8655 100.828C48.8286 100.565 48.9024 100.188 49.0515 99.9264C49.2743 100.075 49.7216 100.153 49.7216 100.526Z" fill="#FBFCFB"/>
</g>
<mask id="mask10_171_3025" style="mask-type:luminance" maskUnits="userSpaceOnUse" x="0" y="0" width="100" height="122">
<path d="M100 0H0V121.512H100V0Z" fill="white"/>
</mask>
<g mask="url(#mask10_171_3025)">
<path d="M48.7543 102.328L48.3438 103.529C48.7543 106.492 48.828 109.645 49.0877 112.685C48.9017 113.961 49.7947 115.799 48.3438 116.437C47.4509 116.664 46.2614 116.551 45.7789 115.836C46.5965 115.236 48.0473 115.387 48.0842 113.996C46.5948 112.497 43.9528 112.721 42.0563 113.246C41.1633 113.246 41.0862 114.298 40.8282 114.898L41.6843 114.71C42.4667 114.71 43.0229 115.199 43.5808 115.724C42.7984 116.323 41.9072 116.55 40.9388 116.588C40.5283 116.551 40.1179 116.176 39.9704 115.762C39.1897 112.646 39.1897 109.007 37.0687 106.606L36.8828 107.618C37.5161 109.758 38.6704 111.748 38.595 114.11C36.9565 116.325 34.6847 118.014 32.0058 117.938C31.5233 117.788 31.2636 117.302 31.2988 116.811C32.6023 115.762 34.5004 114.749 34.8724 113.023C35.6162 109.156 34.6495 105.256 34.6847 101.391C34.8724 101.579 35.0215 101.84 35.2426 101.879C35.0952 100.754 34.5741 99.6269 34.0916 98.5781L33.718 99.4778C34.0531 103.867 34.3128 108.52 34.5004 113.023C33.6075 113.961 32.5269 114.824 31.4496 115.275C31.5602 114.861 31.783 114.373 31.7093 113.996C31.3374 114.561 31.4848 115.461 30.7795 115.836C29.3671 116.551 27.6181 117.186 25.9796 116.551C24.9023 116.025 24.3428 114.899 24.3796 113.735C24.3076 112.46 25.0129 111.524 25.348 110.433C25.2726 110.622 25.0481 110.997 24.7532 110.922C24.1937 110.096 24.9007 109.309 24.9744 108.481C24.5287 109.382 23.8586 110.621 24.6025 111.634C24.1937 112.458 24.0814 113.433 24.0814 114.41C24.0814 115.836 24.5287 117.186 25.8322 117.937C27.5796 118.761 29.404 117.898 30.8565 117.074L31.0794 118.426C31.3407 118.987 31.8232 119.364 32.418 119.399C35.1722 119.098 38.0002 117.074 38.9686 114.41C39.2668 115.497 39.116 116.737 39.9369 117.6C41.5738 118.687 43.1 117.302 44.4369 116.551C45.4053 117.412 46.4474 118.163 47.8614 117.975C48.756 117.863 49.2 116.849 49.4965 116.137C50.3526 112.611 49.3122 108.858 49.3491 105.182L49.9823 105.556C49.7579 104.428 49.2737 103.189 48.7543 102.328ZM43.879 114.296C44.3632 114.109 45.3668 114.182 45.9246 114.482L44.8072 115.008L43.879 114.296Z" fill="#FBFCFB"/>
</g>
<mask id="mask11_171_3025" style="mask-type:luminance" maskUnits="userSpaceOnUse" x="0" y="0" width="100" height="122">
<path d="M100 0H0V121.512H100V0Z" fill="white"/>
</mask>
<g mask="url(#mask11_171_3025)">
<path d="M52.6601 98.5762C52.325 98.6901 52.4004 99.0637 52.2513 99.2882L52.7338 99.176C53.2933 99.7774 52.1775 100.379 52.0284 100.865C52.7338 100.416 53.2565 99.702 53.2565 98.8777C53.1811 98.613 52.9214 98.5762 52.6601 98.5762Z" fill="#FBFCFB"/>
</g>
<mask id="mask12_171_3025" style="mask-type:luminance" maskUnits="userSpaceOnUse" x="0" y="0" width="100" height="122">
<path d="M100 0H0V121.512H100V0Z" fill="white"/>
</mask>
<g mask="url(#mask12_171_3025)">
<path d="M37.888 99.2491C37.888 98.986 37.6283 98.986 37.4423 98.9106C37.1039 98.9475 36.9196 99.3228 36.9196 99.6629L37.4038 99.5506C37.8143 100.187 36.8459 100.789 36.6616 101.238C37.3301 100.789 37.9265 100.112 37.888 99.2491Z" fill="#FBFCFB"/>
</g>
<mask id="mask13_171_3025" style="mask-type:luminance" maskUnits="userSpaceOnUse" x="0" y="0" width="100" height="122">
<path d="M100 0H0V121.512H100V0Z" fill="white"/>
</mask>
<g mask="url(#mask13_171_3025)">
<path d="M57.1248 101.277L57.6107 101.579C57.6492 101.352 57.9457 101.163 57.7581 100.902C57.0528 100.64 57.7949 100.076 57.5353 99.5514C57.3493 98.8377 56.7177 99.5129 56.4178 99.7776C55.8968 100.265 56.4178 100.94 56.8651 101.202C55.8231 102.252 54.5582 102.666 53.4424 103.527C54.8195 103.189 56.123 102.515 57.1248 101.277ZM56.644 100.113C56.7177 99.8882 57.1633 99.7776 57.1633 100.151V100.377C56.9791 100.488 56.7914 100.265 56.644 100.113Z" fill="#FBFCFB"/>
</g>
<mask id="mask14_171_3025" style="mask-type:luminance" maskUnits="userSpaceOnUse" x="0" y="0" width="100" height="122">
<path d="M100 0H0V121.512H100V0Z" fill="white"/>
</mask>
<g mask="url(#mask14_171_3025)">
<path d="M60.438 106.417L60.2135 106.98C61.2924 106.678 62.296 106.042 63.338 105.817C63.4871 109.079 63.8959 112.345 63.8222 115.61C65.1993 112.609 64.1204 108.856 64.1589 105.63L69.2922 103.566L69.4413 103.115C67.6554 103.864 65.9449 104.279 64.1573 105.028C63.9328 104.239 63.8959 103.34 63.9328 102.55C64.1573 102.624 64.3416 103.038 64.5661 102.963C64.2678 101.838 63.8959 100.637 63.3363 99.7358L62.8907 101.014C63.1889 102.4 63.3012 103.902 63.2258 105.326L60.438 106.417Z" fill="#FBFCFB"/>
</g>
<mask id="mask15_171_3025" style="mask-type:luminance" maskUnits="userSpaceOnUse" x="0" y="0" width="100" height="122">
<path d="M100 0H0V121.512H100V0Z" fill="white"/>
</mask>
<g mask="url(#mask15_171_3025)">
<path d="M29.3304 102.439C29.3672 102.667 29.5901 102.855 29.8497 102.815C30.2602 102.59 30.2602 102.103 30.3724 101.727L29.8497 102.213C29.1076 101.501 29.9251 100.6 29.9637 99.7773C29.5549 100.565 29.1444 101.464 29.3304 102.439Z" fill="#FBFCFB"/>
</g>
<mask id="mask16_171_3025" style="mask-type:luminance" maskUnits="userSpaceOnUse" x="0" y="0" width="100" height="122">
<path d="M100 0H0V121.512H100V0Z" fill="white"/>
</mask>
<g mask="url(#mask16_171_3025)">
<path d="M43.0228 102.253C43.0965 102.626 43.0614 103.152 43.5824 103.077C44.028 102.888 43.9912 102.365 44.1034 101.99C43.9175 102.177 43.8806 102.514 43.5824 102.477C42.9491 101.728 43.5439 100.827 43.7315 100.04C43.321 100.715 43.0965 101.464 43.0228 102.253Z" fill="#FBFCFB"/>
</g>
<mask id="mask17_171_3025" style="mask-type:luminance" maskUnits="userSpaceOnUse" x="0" y="0" width="100" height="122">
<path d="M100 0H0V121.512H100V0Z" fill="white"/>
</mask>
<g mask="url(#mask17_171_3025)">
<path d="M65.9079 102.59C65.9447 102.853 66.1307 103.115 66.4641 103.078C66.8377 102.853 66.8377 102.366 66.9868 101.99L66.4641 102.476C65.8325 101.801 66.4272 100.715 66.5395 100.039C66.0938 100.789 65.871 101.654 65.9079 102.59Z" fill="#FBFCFB"/>
</g>
<mask id="mask18_171_3025" style="mask-type:luminance" maskUnits="userSpaceOnUse" x="0" y="0" width="100" height="122">
<path d="M100 0H0V121.512H100V0Z" fill="white"/>
</mask>
<g mask="url(#mask18_171_3025)">
<path d="M51.0613 101.953L50.5771 103.302C51.0613 108.066 51.4316 113.096 51.5086 117.824C51.9174 116.998 52.1402 116.098 52.1771 115.121L51.6209 104.803L52.2525 105.254C51.9543 104.091 51.5824 103.002 51.0613 101.953Z" fill="#FBFCFB"/>
</g>
<mask id="mask19_171_3025" style="mask-type:luminance" maskUnits="userSpaceOnUse" x="0" y="0" width="100" height="122">
<path d="M100 0H0V121.512H100V0Z" fill="white"/>
</mask>
<g mask="url(#mask19_171_3025)">
<path d="M37.6633 102.255C37.1808 103.116 36.8843 104.053 36.8843 105.068C36.958 105.331 37.2194 105.331 37.4053 105.405C37.7404 105.331 38.1106 105.18 38.2246 104.805C38.5211 104.166 38.1877 103.454 37.6281 103.077L37.851 102.255H37.6633ZM38.0369 104.279C37.9247 104.503 37.6633 104.729 37.3668 104.691H37.1808C37.0317 104.391 37.2562 104.051 37.3668 103.789C37.5896 103.903 37.8141 104.091 38.0369 104.279Z" fill="#FBFCFB"/>
</g>
<mask id="mask20_171_3025" style="mask-type:luminance" maskUnits="userSpaceOnUse" x="0" y="0" width="100" height="122">
<path d="M100 0H0V121.512H100V0Z" fill="white"/>
</mask>
<g mask="url(#mask20_171_3025)">
<path d="M72.6061 103.679C72.0851 104.467 71.6763 105.403 71.7115 106.492C71.7483 106.831 72.1202 106.831 72.3816 106.792C72.8272 106.68 73.1623 106.229 73.0886 105.742C73.1992 105.252 72.8641 104.803 72.4536 104.54C72.4201 104.204 72.7535 103.904 72.6061 103.679ZM72.8658 105.742C72.7535 106.041 72.3816 106.154 72.0851 106.154C71.8237 105.854 72.0851 105.515 72.1956 105.252C72.4553 105.329 72.6798 105.479 72.8658 105.742Z" fill="#FBFCFB"/>
</g>
<mask id="mask21_171_3025" style="mask-type:luminance" maskUnits="userSpaceOnUse" x="0" y="0" width="100" height="122">
<path d="M100 0H0V121.512H100V0Z" fill="white"/>
</mask>
<g mask="url(#mask21_171_3025)">
<path d="M56.6782 104.577C56.3448 104.277 56.0098 104.014 55.5641 103.902L55.08 104.952L56.2711 105.778L56.7536 104.952L57.8711 105.666C58.0939 105.328 58.3519 104.989 58.429 104.577C58.0571 104.202 57.6114 104.053 57.2395 103.79C57.0518 104.053 56.9396 104.466 56.6782 104.577Z" fill="#FBFCFB"/>
</g>
<mask id="mask22_171_3025" style="mask-type:luminance" maskUnits="userSpaceOnUse" x="0" y="0" width="100" height="122">
<path d="M100 0H0V121.512H100V0Z" fill="white"/>
</mask>
<g mask="url(#mask22_171_3025)">
<path d="M38.9683 107.506C40.4191 107.055 41.9805 106.418 42.7629 104.916C42.9489 105.066 43.2454 105.329 43.4699 105.066C43.9541 105.556 43.991 106.304 44.249 106.866C44.6242 106.118 44.5874 105.142 45.1067 104.467L45.5909 104.768C45.7032 104.654 45.7032 104.503 45.7769 104.391C45.7015 104.091 45.4804 103.753 45.1067 103.83C44.4768 104.354 44.6242 105.368 44.249 105.82C44.0647 105.182 43.9541 104.316 43.1365 104.091C42.2419 105.891 40.2332 106.492 38.9683 107.506Z" fill="#FBFCFB"/>
</g>
<mask id="mask23_171_3025" style="mask-type:luminance" maskUnits="userSpaceOnUse" x="0" y="0" width="100" height="122">
<path d="M100 0H0V121.512H100V0Z" fill="white"/>
</mask>
<g mask="url(#mask23_171_3025)">
<path d="M27.9908 105.555C28.8469 105.629 29.9996 105.403 30.7083 105.819C29.889 106.492 28.8855 106.757 28.14 107.467C29.7031 107.167 31.5258 106.306 31.8961 104.579C31.1539 104.167 30.1856 104.281 29.2574 104.281C28.5119 104.24 28.2891 105.029 27.9908 105.555Z" fill="#FBFCFB"/>
</g>
<mask id="mask24_171_3025" style="mask-type:luminance" maskUnits="userSpaceOnUse" x="0" y="0" width="100" height="122">
<path d="M100 0H0V121.512H100V0Z" fill="white"/>
</mask>
<g mask="url(#mask24_171_3025)">
<path d="M68.6977 107.466C68.7714 107.654 68.9574 107.956 69.2188 107.842C69.6275 107.617 69.6275 107.131 69.7766 106.754C69.5924 106.865 69.4801 107.24 69.1802 107.24C68.5855 106.491 69.2556 105.59 69.3293 104.804C68.9591 105.63 68.5118 106.456 68.6977 107.466Z" fill="#FBFCFB"/>
</g>
<mask id="mask25_171_3025" style="mask-type:luminance" maskUnits="userSpaceOnUse" x="0" y="0" width="100" height="122">
<path d="M100 0H0V121.512H100V0Z" fill="white"/>
</mask>
<g mask="url(#mask25_171_3025)">
<path d="M59.2082 105.516C58.6871 106.64 57.9433 107.764 57.1626 108.741L55.9345 107.466C56.0836 107.24 56.3818 107.391 56.6047 107.354V107.24C56.0468 106.83 55.4503 106.379 54.8556 106.228C53.9643 107.803 56.0468 108.592 56.5309 109.83C55.8256 111.068 55.0432 112.382 55.3398 113.993C55.4504 114.518 56.0836 114.707 56.5309 114.518C57.5345 114.144 58.7642 113.318 58.8011 112.042C58.8011 110.916 58.4275 109.941 57.6467 109.113C58.3521 107.991 59.4327 106.903 59.2082 105.516ZM58.3521 111.894C57.7204 112.608 56.866 113.208 55.8977 113.022C55.5274 112.72 55.8608 112.308 55.9345 112.01L57.0151 110.321C57.6099 110.654 58.0187 111.33 58.3521 111.894Z" fill="#FBFCFB"/>
</g>
<mask id="mask26_171_3025" style="mask-type:luminance" maskUnits="userSpaceOnUse" x="0" y="0" width="100" height="122">
<path d="M100 0H0V121.512H100V0Z" fill="white"/>
</mask>
<g mask="url(#mask26_171_3025)">
<path d="M66.3931 107.956C66.6527 107.618 66.8035 107.242 66.8772 106.867C66.5422 106.493 66.1317 106.304 65.6861 106.118L65.2002 107.167L66.3931 107.956Z" fill="#FBFCFB"/>
</g>
<mask id="mask27_171_3025" style="mask-type:luminance" maskUnits="userSpaceOnUse" x="0" y="0" width="100" height="122">
<path d="M100 0H0V121.512H100V0Z" fill="white"/>
</mask>
<g mask="url(#mask27_171_3025)">
<path d="M41.0511 109.795L47.0053 107.394L47.1159 107.021C45.1424 107.731 43.1721 108.367 41.274 109.193L41.0511 109.795Z" fill="#FBFCFB"/>
</g>
<mask id="mask28_171_3025" style="mask-type:luminance" maskUnits="userSpaceOnUse" x="0" y="0" width="100" height="122">
<path d="M100 0H0V121.512H100V0Z" fill="white"/>
</mask>
<g mask="url(#mask28_171_3025)">
<path d="M53.5182 110.956C54.0392 110.881 54.0007 110.281 54.1129 109.869C53.9269 110.056 53.8884 110.469 53.5182 110.356C52.9971 109.607 53.5919 108.668 53.7041 107.991C53.2568 108.741 53.034 109.606 53.0725 110.544C53.034 110.732 53.2953 111.07 53.5182 110.956Z" fill="#FBFCFB"/>
</g>
<mask id="mask29_171_3025" style="mask-type:luminance" maskUnits="userSpaceOnUse" x="0" y="0" width="100" height="122">
<path d="M100 0H0V121.512H100V0Z" fill="white"/>
</mask>
<g mask="url(#mask29_171_3025)">
<path d="M74.0187 112.683C74.0555 111.296 73.6082 109.942 72.3835 109.19C71.7503 108.965 71.1924 109.378 70.7836 109.867C70.4117 110.393 70.3011 111.107 70.3748 111.705C70.8573 113.169 73.0152 111.855 73.5379 113.169C72.0099 115.044 70.1151 116.506 67.8836 116.959C67.3257 116.922 66.6539 116.883 66.2836 116.432C67.1012 115.719 68.217 115.044 68.3661 113.918C68.9993 112.418 67.7696 111.406 67.4731 110.205L67.9556 110.317C67.5083 109.753 67.0258 109.151 66.5047 108.739C65.7592 110.616 67.7328 111.892 68.1047 113.544C67.4362 114.407 66.5433 114.894 65.6872 115.496C65.3152 114.295 65.9485 113.132 66.0206 112.082C65.4995 113.244 65.2784 114.519 65.1661 115.834C64.2732 116.397 63.268 116.771 62.1505 116.923C61.5541 116.96 61.1068 116.622 60.6997 116.21C61.482 115.61 62.2996 114.859 62.4856 113.919C63.1189 112.42 61.854 111.408 61.5558 110.207L62.0416 110.319C61.6328 109.755 61.1486 109.153 60.6276 108.741C59.8452 110.507 61.5943 111.745 62.1522 113.244V113.658C61.5558 114.258 60.8873 114.822 60.2172 115.121C60.1451 113.96 60.5908 112.944 60.6661 112.01C60.1451 113.057 59.9189 114.26 59.8084 115.498C58.4312 116.36 56.5331 117.523 54.97 116.36C53.7067 115.198 54.6734 113.284 54.7857 112.01C54.5612 112.385 54.4489 112.832 54.3015 113.244C53.9279 114.822 53.6682 116.923 55.1559 118.049C56.9067 118.724 58.5803 117.635 60.0329 116.699C60.2574 117.146 60.4433 117.599 60.889 117.937C62.4521 118.837 64.1241 117.748 65.5012 116.999C65.7257 117.485 66.1345 117.863 66.545 118.161C68.0327 118.798 69.4098 117.974 70.5624 117.186C71.8977 115.985 74.0924 114.709 74.0187 112.683ZM72.6064 111.18C72.1222 110.994 71.1538 111.408 71.1187 110.656C71.3046 110.354 71.7503 110.468 72.0083 110.544C72.2328 110.656 72.4187 110.879 72.6064 111.068V111.18Z" fill="#FBFCFB"/>
</g>
<mask id="mask30_171_3025" style="mask-type:luminance" maskUnits="userSpaceOnUse" x="0" y="0" width="100" height="122">
<path d="M100 0H0V121.512H100V0Z" fill="white"/>
</mask>
<g mask="url(#mask30_171_3025)">
<path d="M30.9666 112.382C31.0403 112.683 31.1526 113.057 31.5631 112.943C31.8965 112.718 32.0472 112.306 32.0472 111.892C31.8596 112.043 31.8244 112.42 31.5262 112.382C30.8561 111.629 31.5631 110.731 31.6736 109.942C31.2665 110.656 30.9298 111.442 30.9666 112.382Z" fill="#FBFCFB"/>
</g>
<mask id="mask31_171_3025" style="mask-type:luminance" maskUnits="userSpaceOnUse" x="0" y="0" width="100" height="122">
<path d="M100 0H0V121.512H100V0Z" fill="white"/>
</mask>
<g mask="url(#mask31_171_3025)">
<path d="M27.9904 114.22C28.0273 114.408 28.2149 114.709 28.5114 114.595C28.9202 114.371 28.9202 113.883 29.0342 113.508C28.8867 113.62 28.7728 113.994 28.4763 113.994C27.8782 113.243 28.5114 112.344 28.6237 111.556C28.2149 112.345 27.8044 113.243 27.9904 114.22Z" fill="#FBFCFB"/>
</g>
<mask id="mask32_171_3025" style="mask-type:luminance" maskUnits="userSpaceOnUse" x="0" y="0" width="100" height="122">
<path d="M100 0H0V121.512H100V0Z" fill="white"/>
</mask>
<g mask="url(#mask32_171_3025)">
<path d="M37.2941 111.932C37.331 111.63 36.9959 111.483 36.701 111.556C36.438 111.705 36.2922 111.97 36.2922 112.27L36.7764 112.154C37.1852 112.754 36.3676 113.282 36.0309 113.768C36.5871 113.47 37.2572 112.719 37.2941 111.932Z" fill="#FBFCFB"/>
</g>
<mask id="mask33_171_3025" style="mask-type:luminance" maskUnits="userSpaceOnUse" x="0" y="0" width="100" height="122">
<path d="M100 0H0V121.512H100V0Z" fill="white"/>
</mask>
<g mask="url(#mask33_171_3025)">
<path d="M70.8942 119.247L75.9185 115.609V115.009L70.8942 118.758V119.247Z" fill="#FBFCFB"/>
</g>
<mask id="mask34_171_3025" style="mask-type:luminance" maskUnits="userSpaceOnUse" x="0" y="0" width="100" height="122">
<path d="M100 0H0V121.512H100V0Z" fill="white"/>
</mask>
<g mask="url(#mask34_171_3025)">
<path d="M53.4789 117.223C53.1807 117.372 53.0701 117.635 53.0701 117.935L53.5174 117.822C54.1507 118.424 52.9595 118.985 52.8473 119.509C53.5174 119.096 53.9631 118.422 54.0736 117.672C54.1122 117.335 53.814 117.147 53.4789 117.223Z" fill="#FBFCFB"/>
</g>
<mask id="mask35_171_3025" style="mask-type:luminance" maskUnits="userSpaceOnUse" x="0" y="0" width="100" height="122">
<path d="M100 0H0V121.512H100V0Z" fill="white"/>
</mask>
<g mask="url(#mask35_171_3025)">
<path d="M23.7095 35.5741C23.1466 35.5155 23.0913 34.8118 22.5887 34.6962C21.4997 35.2457 21.2819 36.5006 20.7961 37.4522C20.6587 37.7169 20.3873 38.0201 20.0371 37.943C19.3 37.4471 19.6334 36.3263 19.5965 35.6042C19.305 36.3062 19.3016 37.2762 19.5915 38C19.7456 38.2295 19.9199 38.5713 20.27 38.5344C21.3774 37.928 21.1261 36.5006 22.061 35.6847C22.84 34.8503 22.835 36.4671 23.614 36.3364C24.0596 36.2995 24.4885 36.204 24.7968 35.884C24.7197 36.4352 24.5438 37.1942 24.9291 37.6901C25.7836 38.0168 26.3264 37.0668 26.9697 36.7636C27.3735 37.8878 25.8221 37.7102 25.7434 38.4507L26.8508 37.809C26.9463 38.1123 26.9865 38.4172 27.2562 38.645C27.5075 38.893 27.9347 38.8762 28.2463 38.8008C29.7441 38.1189 31.3189 36.6379 31.654 35.0229L32.9943 34.2087C33.3243 34.2087 33.6326 34.5907 34.023 34.6108C35.0114 34.8219 35.7888 34.083 36.355 33.3794L36.4505 33.8736C36.603 34.1768 36.9531 34.1618 37.2648 34.1618C37.8076 34.068 38.275 33.4598 38.5866 33.118C38.6251 33.3442 38.6821 33.5536 38.8563 33.7262C39.0507 33.8585 39.2634 33.8032 39.498 33.7848C39.9252 33.634 40.0609 33.1984 40.2569 32.8734C40.3926 33.1381 40.5819 33.5201 40.9321 33.5603C41.3208 33.5787 41.691 33.3543 41.8854 33.1063C41.9021 33.7329 42.0764 34.4198 42.5991 34.8185C43.5289 34.9542 43.5507 33.8518 43.8824 33.3191C44.1169 32.9019 44.4872 32.2351 45.0685 32.3155C45.3969 33.0192 46.0939 33.629 46.9114 33.6893C47.5045 33.7697 48.0992 33.815 48.694 33.8384L48.7878 33.5821L48.7644 33.1113C47.8345 33.0611 46.9148 32.9354 46.0386 32.6958C45.6147 32.3541 45.5778 31.7057 45.0133 31.5717C43.9863 31.9101 43.7886 33.0125 43.358 33.8116C43.2223 34.0797 42.9308 34.3812 42.5806 34.2472C42.0596 33.9038 42.0194 33.2186 42.0998 32.6104C42.589 30.7843 42.0512 28.8811 42.0361 27.0181L42.0965 26.9611C42.1936 27.0181 42.269 27.2292 42.4064 27.1521C42.2724 26.5808 42.0194 26.0481 41.7714 25.517C41.8284 25.403 41.7128 25.212 41.8669 25.1367C42.971 26.11 43.6847 27.2912 44.1504 28.5661C44.6497 29.7472 44.1437 30.982 43.5389 31.952C44.0834 31.4578 44.3749 30.8312 44.514 30.1476C44.8491 27.7502 43.7299 25.5991 41.7329 24.2822C41.4799 24.8133 41.7714 25.403 41.5939 25.9542C41.6274 28.0266 41.9524 30.1225 41.9474 32.2703L41.7714 32.5551C41.5201 32.7461 41.2471 32.86 40.8969 32.8198C40.5669 32.7243 40.4898 32.3624 40.5501 32.019H40.4915C40.277 32.3624 40.0425 32.7813 39.694 32.989C39.4812 33.0845 39.168 33.1582 38.9753 32.9287C38.7826 32.7377 38.8614 32.4914 38.9183 32.2619C38.4911 32.6037 38.1611 33.2303 37.5981 33.3626C37.305 33.4548 36.9163 33.4548 36.6851 33.247C36.5108 33.0544 36.6298 32.8265 36.6298 32.5987C36.2595 32.7696 36.0066 33.2068 35.6564 33.4916C35.1337 33.8518 34.2944 34.0964 33.7532 33.7145C34.2005 33.3358 34.8606 33.2051 34.9578 32.5384C34.1838 32.024 33.0579 32.2117 32.2404 32.4764C31.6791 32.5886 31.2502 33.0242 31.21 33.5955C31.3859 33.5017 31.5401 33.4079 31.7528 33.4079C32.103 33.3492 32.3727 33.5804 32.6257 33.7898L31.5585 34.3963C31.3826 34.1484 31.2486 33.8435 30.9587 33.7094C30.7074 33.5938 30.3774 33.6508 30.2015 33.8585C29.91 34.2187 29.6369 34.6359 29.7525 35.1301C30.0809 35.6646 30.8381 35.2675 31.2854 35.2105L31.3022 35.4568C30.4461 36.653 29.2197 38.0603 27.6482 38.1123C27.4338 38.0352 27.1808 37.8626 27.1054 37.6348C27.6482 37.2561 28.253 37.0099 28.7959 36.6513L28.9148 36.4051C28.3301 36.6882 27.7672 37.03 27.2026 37.3701H27.0669L27.1088 36.6463C27.6918 36.0197 28.4491 35.5088 28.9952 34.8252C29.1711 34.3494 29.3085 33.6659 28.883 33.2655C28.1643 32.9203 27.2931 32.9388 26.6732 32.4043C26.8089 32.3289 27.02 32.349 27.082 32.2167C26.7318 32.0609 26.3247 31.947 25.9561 31.947V32.4596C26.4956 33.3174 27.5645 33.5871 28.4943 33.8351C28.6685 33.9306 28.96 33.9674 28.9986 34.2171C27.9465 35.2608 26.8005 36.3045 25.5557 37.0048C25.343 37.0802 25.1285 37.0618 24.9744 36.8892C24.8001 36.1655 24.9375 35.3295 25.6194 34.8738C25.678 35.0832 25.5205 35.3312 25.5205 35.5004C25.7534 35.1787 25.869 34.8369 25.9109 34.4566C25.9478 34.3226 25.8925 34.1517 25.7551 34.15C25.1101 34.5873 24.6628 35.6897 23.7095 35.5741ZM33.8872 32.9739L33.3025 33.3543L32.7413 33.0276C33.0915 32.9321 33.5187 32.86 33.8872 32.9739ZM30.1562 34.6577L30.1361 34.4851C30.3506 34.2774 30.7007 34.2975 30.8917 34.584C30.6806 34.6962 30.4092 34.7163 30.1562 34.6577Z" fill="#231F20"/>
</g>
<mask id="mask36_171_3025" style="mask-type:luminance" maskUnits="userSpaceOnUse" x="0" y="0" width="100" height="122">
<path d="M100 0H0V121.512H100V0Z" fill="white"/>
</mask>
<g mask="url(#mask36_171_3025)">
<path d="M51.1524 33.7655C52.5162 33.6231 53.838 33.3132 55.061 32.8357C55.1398 33.0267 55.1565 33.2546 55.2537 33.4271C55.4262 33.789 55.7747 33.9046 56.1651 33.8661C56.3963 33.8108 56.5538 33.5812 56.6493 33.3919C56.8453 32.8977 56.8101 32.2125 56.5018 31.8154C56.4415 31.9846 56.3829 32.1555 56.3242 32.308C56.2656 32.6129 56.6727 32.8608 56.3996 33.1088C56.1852 33.1825 55.8367 33.2009 55.6239 33.0468C55.3542 32.819 55.4112 32.4018 55.4112 32.1153C54.0927 32.5928 52.6167 32.9245 51.1089 33.0669L51.0837 33.5863L51.1524 33.7655Z" fill="#231F20"/>
</g>
<mask id="mask37_171_3025" style="mask-type:luminance" maskUnits="userSpaceOnUse" x="0" y="0" width="100" height="122">
<path d="M100 0H0V121.512H100V0Z" fill="white"/>
</mask>
<g mask="url(#mask37_171_3025)">
<path d="M66.1785 27.1563C66.3126 27.1378 66.4717 27.044 66.4885 26.8932C66.6242 26.5314 66.4131 26.2465 66.1601 26.0153L66.2589 25.6367C65.887 25.8629 65.8502 26.4342 65.7496 26.8899C65.7496 27.0792 65.9825 27.2115 66.1785 27.1563ZM66.0043 26.3755C66.14 26.4342 66.2941 26.528 66.3729 26.662C66.3125 26.7944 66.1216 26.8899 65.9456 26.8128C65.83 26.6805 65.9658 26.5096 66.0043 26.3755Z" fill="#231F20"/>
</g>
<mask id="mask38_171_3025" style="mask-type:luminance" maskUnits="userSpaceOnUse" x="0" y="0" width="100" height="122">
<path d="M100 0H0V121.512H100V0Z" fill="white"/>
</mask>
<g mask="url(#mask38_171_3025)">
<path d="M36.3663 26.8747C36.502 26.5346 36.3864 26.1325 36.0564 25.9416C36.0966 25.8092 36.2122 25.6567 36.1753 25.5596C36.0195 25.6366 35.9994 25.8259 35.9223 25.96C35.8034 26.3403 35.4935 26.9099 35.8604 27.1947C36.0547 27.178 36.249 27.0456 36.3663 26.8747ZM35.9207 26.3788C36.0748 26.3788 36.1904 26.4743 36.3077 26.5899C36.1904 26.7223 36.0346 26.8345 35.8587 26.8345C35.7833 26.6837 35.8403 26.5128 35.9207 26.3788Z" fill="#231F20"/>
</g>
<mask id="mask39_171_3025" style="mask-type:luminance" maskUnits="userSpaceOnUse" x="0" y="0" width="100" height="122">
<path d="M100 0H0V121.512H100V0Z" fill="white"/>
</mask>
<g mask="url(#mask39_171_3025)">
<path d="M64.0591 27.5881C64.2551 27.511 64.2937 27.2664 64.3339 27.0738C64.2752 27.1492 64.1781 27.3016 64.0625 27.2832C63.7324 26.9196 64.0457 26.3886 64.1044 26.0669C63.9485 26.4271 63.714 26.7689 63.7726 27.2078C63.771 27.3971 63.848 27.5496 64.0591 27.5881Z" fill="#231F20"/>
</g>
<mask id="mask40_171_3025" style="mask-type:luminance" maskUnits="userSpaceOnUse" x="0" y="0" width="100" height="122">
<path d="M100 0H0V121.512H100V0Z" fill="white"/>
</mask>
<g mask="url(#mask40_171_3025)">
<path d="M69.4753 27.6403C69.6311 27.5079 69.6311 27.337 69.6897 27.1645L69.4367 27.3555C69.0112 27.0288 69.4384 26.5178 69.4786 26.1392C69.2642 26.4994 69.0514 26.9182 69.1469 27.394C69.1452 27.5448 69.3195 27.6771 69.4753 27.6403Z" fill="#231F20"/>
</g>
<mask id="mask41_171_3025" style="mask-type:luminance" maskUnits="userSpaceOnUse" x="0" y="0" width="100" height="122">
<path d="M100 0H0V121.512H100V0Z" fill="white"/>
</mask>
<g mask="url(#mask41_171_3025)">
<path d="M59.8286 27.806C60.0028 27.692 60.0816 27.4843 60.0816 27.2749C60.0229 27.3704 59.9241 27.5195 59.8102 27.5011C59.4985 27.1208 59.7917 26.645 59.8906 26.2646C59.6745 26.6265 59.4801 27.0068 59.517 27.4826C59.5572 27.6334 59.6326 27.806 59.8286 27.806Z" fill="#231F20"/>
</g>
<mask id="mask42_171_3025" style="mask-type:luminance" maskUnits="userSpaceOnUse" x="0" y="0" width="100" height="122">
<path d="M100 0H0V121.512H100V0Z" fill="white"/>
</mask>
<g mask="url(#mask42_171_3025)">
<path d="M33.8604 27.9899C34.1134 27.8777 34.1519 27.6113 34.2106 27.3818C34.1151 27.4588 34.0548 27.685 33.8621 27.6649C33.6477 27.2863 33.9006 26.8122 33.9794 26.4302C33.8252 26.8122 33.6091 27.1707 33.6091 27.6281C33.646 27.7621 33.646 28.0268 33.8604 27.9899Z" fill="#231F20"/>
</g>
<mask id="mask43_171_3025" style="mask-type:luminance" maskUnits="userSpaceOnUse" x="0" y="0" width="100" height="122">
<path d="M100 0H0V121.512H100V0Z" fill="white"/>
</mask>
<g mask="url(#mask43_171_3025)">
<path d="M58.4208 31.9295C58.3437 32.1389 58.1678 32.3466 58.2064 32.5561L58.4593 32.4991C58.9653 32.4237 59.2736 32.8241 59.6036 33.1491C58.9251 33.4306 58.1846 33.5244 57.5061 33.7891C56.2646 33.9181 55.8508 35.7828 54.5122 35.57C53.6025 34.8831 54.5172 33.8394 54.596 33.0989C54.2458 33.63 53.9929 34.1996 53.9526 34.8463C53.9108 35.379 54.1621 35.8565 54.6094 36.1229C55.5392 36.4479 55.948 35.3841 56.6282 34.9468C57.6401 34.1895 58.9217 34.0773 60.0677 33.6635C60.572 34.2549 61.2103 34.6368 61.9675 34.5615C62.2976 34.466 62.4936 34.1259 62.6494 33.8595C63.1369 32.1104 62.5422 30.2809 62.6226 28.495C63.4318 29.847 64.499 31.0868 64.6296 32.7219C64.5894 33.5211 63.9478 34.1828 63.286 34.6201L63.2877 33.4423L63.1721 33.7271C63.0146 34.2582 63.209 35.0389 62.5472 35.2467C62.7415 35.2282 62.8973 35.1143 63.0531 35.0389C63.1486 35.0791 63.1101 35.1713 63.1101 35.2299C63.3028 35.8012 63.4167 36.6741 64.1924 36.716C64.9899 36.2234 64.8943 35.2165 65.6918 34.6854C65.8661 34.6084 66.1375 34.4944 66.2933 34.6854C66.6417 35.3522 67.1259 36.2485 68.0557 36.1731C68.3473 36.1179 68.6605 35.9285 68.813 35.6622C69.0861 35.2634 68.8934 34.7106 68.7778 34.3487C69.5552 35.0172 70.1516 36.3306 71.3562 36.1246C71.7817 36.0123 71.8605 35.575 71.9794 35.2316L72.0749 35.7459C72.4234 36.7361 73.5258 37.4414 74.4774 37.6357L74.536 37.18C74.4991 36.9539 74.206 36.8567 74.0334 36.7411C73.7235 36.4379 73.1806 36.2636 73.122 35.8263L74.6566 35.5633C74.8292 35.9436 75.1609 36.344 75.5077 36.5736C75.7406 36.6691 76.089 36.783 76.208 36.4596C76.3638 35.9671 76.347 35.3572 75.9215 34.9937C75.6283 34.8027 75.2597 34.7457 74.9096 34.8211C74.66 34.0773 74.5645 33.2413 74.5662 32.4421L76.0254 32.3131C76.1611 32.3316 76.2382 32.1406 76.1996 32.0652L74.5494 32.2126C74.4539 31.2996 74.3785 30.2508 74.4204 29.2824L74.7488 29.589C74.6348 28.9591 74.3433 28.3895 74.1322 27.7796C74.0351 27.8182 73.9949 28.0242 73.9161 28.1583C74.03 29.4717 73.9865 30.8975 74.159 32.2109C73.8089 32.4003 73.1488 32.1506 73.0717 32.6264L74.1574 32.5159C74.2914 33.2966 74.3098 34.1527 74.464 34.8949L73.3951 35.1193C73.0265 35.2148 72.8506 35.6119 72.7718 35.9168L72.6948 35.8213C71.8638 33.9365 72.2408 31.5408 71.9526 29.4098C71.8387 28.7245 71.7633 27.9237 71.4919 27.391L71.3344 27.8869C71.698 30.1536 71.7884 32.5293 71.7666 34.9451C71.765 35.173 71.5505 35.3237 71.3562 35.4192C70.9692 35.5315 70.6375 35.3422 70.3476 35.1696C68.7209 33.5294 66.9584 31.7552 65.216 30.363C66.558 29.6242 68.0909 29.3427 69.6054 29.0227C70.0511 29.0244 70.6927 28.815 70.9239 29.2539C70.5152 29.7482 69.835 30.1452 69.7763 30.8103C70.1667 30.0313 71.2724 29.7096 71.2372 28.7597C71.0446 28.2839 70.366 28.4163 69.9171 28.4347C68.2869 28.7128 66.6183 28.9574 65.2177 29.8085C65.0619 30.1335 65.0401 30.5507 65.0803 30.9142L67.791 33.6015C68.1965 34.0773 68.6421 34.5548 68.7577 35.1629C68.5047 35.3908 68.1948 35.4846 67.8262 35.4276C66.9735 35.369 66.8595 34.4174 66.3352 33.9215C65.2847 33.8059 64.9915 35.0222 64.5827 35.6689C64.4671 35.8783 64.2527 36.2167 63.9226 36.1028C63.4184 35.9302 63.3413 35.379 63.2843 34.9233C63.8489 34.5631 64.5107 34.089 64.762 33.444C65.35 31.1605 63.6847 29.3897 62.7013 27.5216C62.4483 27.2368 62.4684 26.7593 62.1568 26.5684C62.0412 26.8548 61.8469 27.2318 62.1166 27.4982C62.249 29.46 62.4383 31.3816 62.4735 33.3602C62.4517 33.5311 62.4132 33.7204 62.2205 33.7791C61.676 33.9868 61.0746 33.7757 60.706 33.4138C61.1533 33.186 61.8519 33.2446 61.9106 32.5963C61.6023 32.293 61.232 32.0618 60.8266 31.9312C60.1112 31.7234 59.1228 31.6078 58.4208 31.9295ZM75.878 35.8347V35.9285C75.625 35.9101 75.3921 35.7577 75.238 35.5281C75.4926 35.5281 75.7439 35.6421 75.878 35.8347ZM60.8249 32.7152L60.2419 32.923L59.6991 32.4287C60.1079 32.4472 60.4966 32.4874 60.8249 32.7152Z" fill="#231F20"/>
</g>
<mask id="mask44_171_3025" style="mask-type:luminance" maskUnits="userSpaceOnUse" x="0" y="0" width="100" height="122">
<path d="M100 0H0V121.512H100V0Z" fill="white"/>
</mask>
<g mask="url(#mask44_171_3025)">
<path d="M37.8016 27.8105C37.2773 28.3785 36.5971 28.7001 36.0509 29.1927C36.7512 28.8895 37.4515 28.4924 37.9558 27.8273L38.2054 27.9412C38.2272 27.829 38.4014 27.6966 38.2657 27.581C37.9759 27.5425 38.2071 27.2761 38.1702 27.1253C38.2875 26.554 37.6659 26.8958 37.5671 27.1421C37.3376 27.39 37.5872 27.715 37.8016 27.8105ZM37.9776 27.2593L37.9591 27.4302C37.8603 27.3934 37.7631 27.3347 37.7061 27.2577C37.7246 27.1622 37.9977 27.0483 37.9776 27.2593Z" fill="#231F20"/>
</g>
<mask id="mask45_171_3025" style="mask-type:luminance" maskUnits="userSpaceOnUse" x="0" y="0" width="100" height="122">
<path d="M100 0H0V121.512H100V0Z" fill="white"/>
</mask>
<g mask="url(#mask45_171_3025)">
<path d="M75.9555 28.6431C76.1515 28.2461 75.8801 27.8825 75.6489 27.5977C75.6858 27.4855 75.8047 27.3498 75.7662 27.2358C75.4161 27.5977 75.1212 28.2042 75.3742 28.7202C75.5467 28.7973 75.8181 28.8526 75.9555 28.6431ZM75.5116 27.9763C75.6674 28.0551 75.8416 28.2059 75.8785 28.3583C75.7411 28.4153 75.5869 28.4723 75.4529 28.4153C75.3356 28.2813 75.4529 28.1104 75.5116 27.9763Z" fill="#231F20"/>
</g>
<mask id="mask46_171_3025" style="mask-type:luminance" maskUnits="userSpaceOnUse" x="0" y="0" width="100" height="122">
<path d="M100 0H0V121.512H100V0Z" fill="white"/>
</mask>
<g mask="url(#mask46_171_3025)">
<path d="M72.4438 27.7996C72.6381 28.0845 72.7135 28.4095 72.7906 28.7328C72.6549 28.8451 72.5577 28.9992 72.5979 29.2086C72.6549 29.15 72.8693 29.0176 72.9648 29.2086L72.5745 29.3594C72.4388 30.1384 72.804 30.9392 72.7822 31.7183C72.9012 31.0347 72.7487 30.3277 72.5929 29.6643C72.8073 29.5521 73.0787 29.5688 73.3317 29.532C73.5847 29.1902 73.0804 28.9238 72.9062 28.7144L73.1424 27.8583C73.2396 27.5165 73.4322 27.8583 73.5478 27.9186L73.588 27.9002C73.6651 27.7276 73.5696 27.5567 73.4339 27.4227C72.9296 27.3641 73.062 28.0308 72.8877 28.3358C72.7319 27.9554 72.6968 27.4411 72.2277 27.2686L72.0333 27.555C72.1322 27.6656 72.2696 27.8951 72.4438 27.7996Z" fill="#231F20"/>
</g>
<mask id="mask47_171_3025" style="mask-type:luminance" maskUnits="userSpaceOnUse" x="0" y="0" width="100" height="122">
<path d="M100 0H0V121.512H100V0Z" fill="white"/>
</mask>
<g mask="url(#mask47_171_3025)">
<path d="M39.9912 28.8233C40.204 28.7094 40.2459 28.4631 40.3029 28.2537C40.2057 28.309 40.1688 28.5385 39.9929 28.5C39.7232 28.1381 40.013 27.6255 40.0733 27.2837C39.8773 27.6824 39.7031 28.0812 39.7399 28.5754C39.7601 28.691 39.8371 28.8434 39.9912 28.8233Z" fill="#231F20"/>
</g>
<mask id="mask48_171_3025" style="mask-type:luminance" maskUnits="userSpaceOnUse" x="0" y="0" width="100" height="122">
<path d="M100 0H0V121.512H100V0Z" fill="white"/>
</mask>
<g mask="url(#mask48_171_3025)">
<path d="M67.9421 27.3496C66.9151 27.5372 65.8445 27.6294 64.8544 27.8958L64.7958 28.1404L67.8834 27.5406L67.9421 27.3496Z" fill="#231F20"/>
</g>
<mask id="mask49_171_3025" style="mask-type:luminance" maskUnits="userSpaceOnUse" x="0" y="0" width="100" height="122">
<path d="M100 0H0V121.512H100V0Z" fill="white"/>
</mask>
<g mask="url(#mask49_171_3025)">
<path d="M55.7509 28.8609L58.8184 28.0131L58.9173 27.8037C58.2773 27.9545 57.6373 28.1053 57.0141 28.2561C56.607 28.4822 55.8866 28.3298 55.7509 28.8609Z" fill="#231F20"/>
</g>
<mask id="mask50_171_3025" style="mask-type:luminance" maskUnits="userSpaceOnUse" x="0" y="0" width="100" height="122">
<path d="M100 0H0V121.512H100V0Z" fill="white"/>
</mask>
<g mask="url(#mask50_171_3025)">
<path d="M34.9083 28.5425L35.1027 28.6765C35.1797 28.5994 35.1797 28.4855 35.1797 28.3732L35.0457 28.2007C34.523 28.3314 34.6369 28.9412 34.461 29.3215C34.3823 29.0551 34.3069 28.8072 34.0941 28.5776C33.9969 28.5391 33.8445 28.4269 33.764 28.5776C33.6887 28.71 33.5127 28.8809 33.7255 28.9965C33.821 29.0534 33.94 29.0551 34.017 28.978C34.2482 29.226 34.3638 29.551 34.3437 29.8727C33.8193 30.5177 33.0219 30.9533 32.4573 31.4643C32.9632 31.2197 33.4675 30.9918 33.8964 30.5948C34.6135 30.0654 34.4392 29.1506 34.9083 28.5425Z" fill="#231F20"/>
</g>
<mask id="mask51_171_3025" style="mask-type:luminance" maskUnits="userSpaceOnUse" x="0" y="0" width="100" height="122">
<path d="M100 0H0V121.512H100V0Z" fill="white"/>
</mask>
<g mask="url(#mask51_171_3025)">
<path d="M24.2892 29.1636C24.1937 29.2407 24.1149 29.4686 23.939 29.4686C23.7263 29.0866 23.9826 28.6309 24.0597 28.2305C23.8251 28.6878 23.5738 29.3127 23.8419 29.7902C24.1903 29.7919 24.1903 29.3915 24.2892 29.1636Z" fill="#231F20"/>
</g>
<mask id="mask52_171_3025" style="mask-type:luminance" maskUnits="userSpaceOnUse" x="0" y="0" width="100" height="122">
<path d="M100 0H0V121.512H100V0Z" fill="white"/>
</mask>
<g mask="url(#mask52_171_3025)">
<path d="M57.5929 29.4949L60.7007 28.7025L60.7576 28.5132C59.7089 28.7209 58.697 28.9639 57.7085 29.2487L57.5929 29.4949Z" fill="#231F20"/>
</g>
<mask id="mask53_171_3025" style="mask-type:luminance" maskUnits="userSpaceOnUse" x="0" y="0" width="100" height="122">
<path d="M100 0H0V121.512H100V0Z" fill="white"/>
</mask>
<g mask="url(#mask53_171_3025)">
<path d="M31.7218 29.7155L31.9161 29.7926C32.3617 29.4324 31.5073 29.3938 31.8809 28.9951C31.8809 28.8611 31.9195 28.6517 31.7251 28.6701C31.4537 28.784 31.1806 29.0705 31.1806 29.3737C31.2192 29.5446 31.4135 29.5832 31.5107 29.6786C31.0248 30.3052 30.2458 30.6638 29.78 31.1764C30.4971 30.8732 31.1957 30.3237 31.7218 29.7155ZM31.4135 29.1626C31.4336 29.032 31.6866 28.9348 31.6849 29.1275L31.6665 29.2983C31.5676 29.2799 31.4889 29.2213 31.4135 29.1626Z" fill="#231F20"/>
</g>
<mask id="mask54_171_3025" style="mask-type:luminance" maskUnits="userSpaceOnUse" x="0" y="0" width="100" height="122">
<path d="M100 0H0V121.512H100V0Z" fill="white"/>
</mask>
<g mask="url(#mask54_171_3025)">
<path d="M43.4422 30.5062C43.5796 30.3353 43.6952 30.1443 43.7337 29.9365C43.6566 29.8226 43.541 29.8025 43.4439 29.7455C42.9195 29.6115 43.541 29.3083 43.4439 29.0603L42.8424 28.6968L42.5509 29.2664L42.8407 29.439C43.3266 29.5361 42.8608 29.8947 42.8391 30.1242L43.4422 30.5062Z" fill="#231F20"/>
</g>
<mask id="mask55_171_3025" style="mask-type:luminance" maskUnits="userSpaceOnUse" x="0" y="0" width="100" height="122">
<path d="M100 0H0V121.512H100V0Z" fill="white"/>
</mask>
<g mask="url(#mask55_171_3025)">
<path d="M27.6653 29.5545C27.7625 29.6499 27.9367 29.6868 28.0523 29.593C28.2668 29.8208 28.3439 30.1257 28.4192 30.4106C28.6722 30.0504 28.5968 29.5561 28.8113 29.1758C28.89 29.0049 29.024 29.1574 29.1212 29.2144C29.2184 29.1189 29.2 29.0066 29.2 28.8726C29.1413 28.7972 29.0659 28.7587 28.9688 28.7402C28.56 28.9664 28.6169 29.4807 28.4997 29.861C28.4008 29.8795 28.4209 29.7103 28.3824 29.6131C28.2869 29.4037 28.1529 29.1189 27.8614 29.1189C27.4308 30.0487 26.4004 30.6367 25.6432 31.3002C26.4206 30.9584 27.275 30.3519 27.6653 29.5545Z" fill="#231F20"/>
</g>
<mask id="mask56_171_3025" style="mask-type:luminance" maskUnits="userSpaceOnUse" x="0" y="0" width="100" height="122">
<path d="M100 0H0V121.512H100V0Z" fill="white"/>
</mask>
<g mask="url(#mask56_171_3025)">
<path d="M19.4855 32.8057C19.9713 32.5024 20.4572 32.2025 20.8861 31.7837C21.5847 31.2325 21.5478 30.3781 21.841 29.656C21.8997 29.5605 22.0153 29.5605 22.0739 29.656C22.2297 29.7515 22.2113 29.5036 22.2297 29.4114C22.1945 29.3142 22.1342 29.2757 22.037 29.2188C21.5914 29.4667 21.6685 30.0564 21.4925 30.4149C21.4557 30.1687 21.3568 29.9207 21.1441 29.7314L20.814 29.7297C20.814 29.8822 20.5627 29.9961 20.7353 30.1469C20.814 30.2256 21.0251 30.2608 21.0653 30.1301C21.2379 30.3781 21.4138 30.6244 21.4306 30.9494C20.8877 31.6497 20.1271 32.2009 19.4855 32.8057Z" fill="#231F20"/>
</g>
<mask id="mask57_171_3025" style="mask-type:luminance" maskUnits="userSpaceOnUse" x="0" y="0" width="100" height="122">
<path d="M100 0H0V121.512H100V0Z" fill="white"/>
</mask>
<g mask="url(#mask57_171_3025)">
<path d="M38.2816 29.523C38.0471 29.8062 38.4911 30.2267 38.1041 30.4545C37.5797 30.5483 37.97 29.9218 37.7757 29.6906L37.6383 29.8631C37.6768 30.0709 37.6752 30.3188 37.7154 30.6053C37.7355 30.684 37.831 30.8348 37.9667 30.7963C38.161 30.741 38.2599 30.607 38.3403 30.4361L38.4927 30.6271C38.5882 30.607 38.7256 30.6656 38.7826 30.5684C39.1327 30.2082 38.7273 29.8078 38.7089 29.4292C38.4927 29.714 38.7256 29.9988 38.8027 30.2652C38.2398 30.5885 38.5346 29.7123 38.2816 29.523Z" fill="#231F20"/>
</g>
<mask id="mask58_171_3025" style="mask-type:luminance" maskUnits="userSpaceOnUse" x="0" y="0" width="100" height="122">
<path d="M100 0H0V121.512H100V0Z" fill="white"/>
</mask>
<g mask="url(#mask58_171_3025)">
<path d="M25.433 29.4536C24.3641 29.983 23.3723 30.6465 22.3436 31.2714L22.2649 31.5763L25.2788 29.72L25.433 29.4536Z" fill="#231F20"/>
</g>
<mask id="mask59_171_3025" style="mask-type:luminance" maskUnits="userSpaceOnUse" x="0" y="0" width="100" height="122">
<path d="M100 0H0V121.512H100V0Z" fill="white"/>
</mask>
<g mask="url(#mask59_171_3025)">
<path d="M77.2733 36.6359L76.955 31.3469L77.0153 31.2899L77.3236 31.6333C77.1712 30.9867 76.9584 30.3567 76.6702 29.7871L76.4541 30.3383C76.6836 32.8312 76.888 35.418 76.9031 37.8908C77.1561 37.5289 77.2348 37.0916 77.2733 36.6359Z" fill="#231F20"/>
</g>
<mask id="mask60_171_3025" style="mask-type:luminance" maskUnits="userSpaceOnUse" x="0" y="0" width="100" height="122">
<path d="M100 0H0V121.512H100V0Z" fill="white"/>
</mask>
<g mask="url(#mask60_171_3025)">
<path d="M57.0657 31.2231C57.0858 31.3571 57.2198 31.4727 57.3539 31.4727C57.5482 31.3588 57.5884 31.1494 57.6085 30.94C57.5499 31.0355 57.4527 31.2063 57.317 31.1661C57.0473 30.7858 57.3187 30.2916 57.3957 29.9683C57.1629 30.3285 57.0456 30.7473 57.0657 31.2231Z" fill="#231F20"/>
</g>
<mask id="mask61_171_3025" style="mask-type:luminance" maskUnits="userSpaceOnUse" x="0" y="0" width="100" height="122">
<path d="M100 0H0V121.512H100V0Z" fill="white"/>
</mask>
<g mask="url(#mask61_171_3025)">
<path d="M75.3857 31.534C75.56 31.4402 75.6387 31.2509 75.6387 31.0398C75.5801 31.1537 75.4846 31.2291 75.3656 31.2291C75.0373 30.8673 75.3673 30.3546 75.4276 30.0312C75.1931 30.3915 75.0557 30.7734 75.0758 31.2275C75.1143 31.3799 75.2316 31.5156 75.3857 31.534Z" fill="#231F20"/>
</g>
<mask id="mask62_171_3025" style="mask-type:luminance" maskUnits="userSpaceOnUse" x="0" y="0" width="100" height="122">
<path d="M100 0H0V121.512H100V0Z" fill="white"/>
</mask>
<g mask="url(#mask62_171_3025)">
<path d="M68.0699 30.7756C68.1671 30.8342 68.09 30.9833 68.2441 30.9666C68.3229 30.9465 68.4569 30.9096 68.3999 30.7773C68.3229 30.5863 68.09 30.5276 67.8957 30.4506C67.5472 30.3752 66.9826 30.3165 66.7497 30.6215C67.001 31.1911 67.8538 31.3837 67.9325 32.012C67.3512 31.5731 66.614 31.1726 66.227 30.5812C66.1667 31.3988 67.1552 31.7456 67.698 32.1427C67.8554 32.1829 68.0682 32.1443 68.1855 31.955C68.2659 31.2514 67.3143 31.1542 67.063 30.5645C67.3914 30.469 67.7784 30.6215 68.0699 30.7756Z" fill="#231F20"/>
</g>
<mask id="mask63_171_3025" style="mask-type:luminance" maskUnits="userSpaceOnUse" x="0" y="0" width="100" height="122">
<path d="M100 0H0V121.512H100V0Z" fill="white"/>
</mask>
<g mask="url(#mask63_171_3025)">
<path d="M35.8112 31.8183C35.8112 31.9708 35.9083 32.1417 36.101 32.1031C36.2752 31.9909 36.354 31.629 36.354 31.5536C36.2568 31.629 36.2183 31.82 36.0625 31.7999C35.7927 31.4012 36.0842 30.9069 36.163 30.5635C35.9686 30.9622 35.7726 31.3442 35.8112 31.8183Z" fill="#231F20"/>
</g>
<mask id="mask64_171_3025" style="mask-type:luminance" maskUnits="userSpaceOnUse" x="0" y="0" width="100" height="122">
<path d="M100 0H0V121.512H100V0Z" fill="white"/>
</mask>
<g mask="url(#mask64_171_3025)">
<path d="M63.4512 31.1226L63.1965 31.6369L63.7008 32.0742L63.4462 32.55C63.6589 32.7208 63.8734 32.9303 64.0861 33.0643C64.2034 32.9118 64.3207 32.7409 64.3408 32.5516C64.2235 32.3992 64.0292 32.2853 63.875 32.1311C63.8566 32.0189 63.9722 31.9602 64.0108 31.8664C64.2269 31.5062 63.6623 31.3152 63.4512 31.1226Z" fill="#231F20"/>
</g>
<mask id="mask65_171_3025" style="mask-type:luminance" maskUnits="userSpaceOnUse" x="0" y="0" width="100" height="122">
<path d="M100 0H0V121.512H100V0Z" fill="white"/>
</mask>
<g mask="url(#mask65_171_3025)">
<path d="M23.4673 32.1295C23.3886 32.225 23.2328 32.3573 23.3283 32.4729C23.5226 32.6639 23.2696 33.0425 23.541 33.195C23.8141 33.2134 23.9498 32.9487 24.0453 32.7778L24.181 32.9504C24.3368 32.9873 24.4558 32.9119 24.5312 32.7795C24.7272 32.4361 24.496 32.0373 24.3804 31.7324C24.0872 32.0742 24.6099 32.3607 24.4156 32.6455C23.9096 32.7025 24.243 32.1127 24.0286 31.9033C23.66 32.1127 24.2815 32.607 23.7739 32.8733C23.2713 32.9102 23.7002 32.302 23.4673 32.1295Z" fill="#231F20"/>
</g>
<mask id="mask66_171_3025" style="mask-type:luminance" maskUnits="userSpaceOnUse" x="0" y="0" width="100" height="122">
<path d="M100 0H0V121.512H100V0Z" fill="white"/>
</mask>
<g mask="url(#mask66_171_3025)">
<path d="M69.8481 33.4228C69.8666 33.6121 69.9252 33.8416 70.1782 33.8232C70.3541 33.7294 70.3926 33.54 70.4127 33.3692L70.1782 33.5585C69.7728 33.2335 70.1229 32.7024 70.2201 32.3237C69.9654 32.6437 69.8884 33.0224 69.8481 33.4228Z" fill="#231F20"/>
</g>
<mask id="mask67_171_3025" style="mask-type:luminance" maskUnits="userSpaceOnUse" x="0" y="0" width="100" height="122">
<path d="M100 0H0V121.512H100V0Z" fill="white"/>
</mask>
<g mask="url(#mask67_171_3025)">
<path d="M72.7595 34.1135C72.798 34.209 72.9153 34.3614 73.0292 34.3614C73.2621 34.286 73.2638 33.9828 73.2822 33.8672C73.2253 33.9443 73.1666 34.0766 73.0292 34.0582C72.6439 33.6762 73.0493 33.2222 73.0895 32.8218C72.8583 33.2038 72.6841 33.6394 72.7595 34.1135Z" fill="#231F20"/>
</g>
<mask id="mask68_171_3025" style="mask-type:luminance" maskUnits="userSpaceOnUse" x="0" y="0" width="100" height="122">
<path d="M100 0H0V121.512H100V0Z" fill="white"/>
</mask>
<g mask="url(#mask68_171_3025)">
<path d="M21.1918 33.6854C21.3861 33.7441 21.6006 33.8965 21.7547 33.8781C21.8502 33.6687 22.0261 33.4994 22.0077 33.2515L21.4247 33.022L21.1717 33.4961L20.5518 33.3051L20.2988 33.9317L20.8802 34.1796C21.036 34.0272 21.0176 33.7993 21.1918 33.6854Z" fill="#231F20"/>
</g>
<mask id="mask69_171_3025" style="mask-type:luminance" maskUnits="userSpaceOnUse" x="0" y="0" width="100" height="122">
<path d="M100 0H0V121.512H100V0Z" fill="white"/>
</mask>
<g mask="url(#mask69_171_3025)">
<path d="M19.3836 35.3917C19.6534 35.2978 19.7137 34.9192 19.7137 34.7651C19.6751 34.8974 19.5579 35.0315 19.4205 35.0683C19.1709 34.6863 19.4238 34.1921 19.5411 33.8135C19.3484 34.2306 19.1307 34.6478 19.1709 35.1806C19.1893 35.2777 19.2479 35.4118 19.3836 35.3917Z" fill="#231F20"/>
</g>
<mask id="mask70_171_3025" style="mask-type:luminance" maskUnits="userSpaceOnUse" x="0" y="0" width="100" height="122">
<path d="M100 0H0V121.512H100V0Z" fill="white"/>
</mask>
<g mask="url(#mask70_171_3025)">
<path d="M55.4644 34.5468C55.6018 34.2251 55.0975 34.0911 54.9032 33.8984L54.6117 34.4513L55.1143 34.8316C55.3103 34.9841 55.3472 34.6423 55.4644 34.5468Z" fill="#231F20"/>
</g>
<mask id="mask71_171_3025" style="mask-type:luminance" maskUnits="userSpaceOnUse" x="0" y="0" width="100" height="122">
<path d="M100 0H0V121.512H100V0Z" fill="white"/>
</mask>
<g mask="url(#mask71_171_3025)">
<path d="M39.24 34.7183L39.2199 34.4905L38.9099 34.8708C37.7271 34.6011 37.3552 36.062 36.479 36.5193C36.9481 36.4423 37.2195 35.9497 37.5697 35.6465C37.9399 34.9831 38.6955 35.4957 39.1026 34.9663C39.24 35.0635 39.493 35.0266 39.5901 34.8742C39.6287 34.72 39.7476 34.4553 39.5918 34.3213C39.5332 34.4168 39.4544 34.5491 39.5332 34.6647C39.4712 34.7569 39.3371 34.6999 39.24 34.7183Z" fill="#231F20"/>
</g>
<mask id="mask72_171_3025" style="mask-type:luminance" maskUnits="userSpaceOnUse" x="0" y="0" width="100" height="122">
<path d="M100 0H0V121.512H100V0Z" fill="white"/>
</mask>
<g mask="url(#mask72_171_3025)">
<path d="M40.3433 35.7469C40.3433 35.8608 40.4572 35.9379 40.5561 35.9379C40.7856 35.8608 40.866 35.5392 40.866 35.3666C40.8275 35.4805 40.7102 35.6146 40.5745 35.6146C40.2646 35.251 40.6348 34.7953 40.6734 34.3765C40.4807 34.797 40.226 35.2527 40.3433 35.7469Z" fill="#231F20"/>
</g>
<mask id="mask73_171_3025" style="mask-type:luminance" maskUnits="userSpaceOnUse" x="0" y="0" width="100" height="122">
<path d="M100 0H0V121.512H100V0Z" fill="white"/>
</mask>
<g mask="url(#mask73_171_3025)">
<path d="M59.4954 36.593C59.9226 36.727 60.4671 36.7069 60.7989 36.4053C60.37 36.4053 59.807 36.5544 59.477 36.2696C59.42 35.7 60.3147 35.5291 60.3716 35.0148C60.1421 35.1103 59.8288 35.4135 59.5976 35.0516L59.6546 34.9209C59.7149 34.7484 59.926 34.8053 59.9461 34.9578C60.0047 34.8623 60.0818 34.8053 60.1019 34.7115C60.1019 34.5976 59.9662 34.5406 59.869 34.5591C59.6546 34.7115 59.3648 34.9394 59.3631 35.2242C59.4217 35.3565 59.5172 35.4336 59.6529 35.5291L59.3999 35.9278C59.3229 36.1188 59.2441 36.4606 59.4954 36.593Z" fill="#231F20"/>
</g>
<mask id="mask74_171_3025" style="mask-type:luminance" maskUnits="userSpaceOnUse" x="0" y="0" width="100" height="122">
<path d="M100 0H0V121.512H100V0Z" fill="white"/>
</mask>
<g mask="url(#mask74_171_3025)">
<path d="M41.8928 36.2252L45.0039 34.8648L45.0241 34.6738L41.9732 35.9404L41.8928 36.2252Z" fill="#231F20"/>
</g>
<mask id="mask75_171_3025" style="mask-type:luminance" maskUnits="userSpaceOnUse" x="0" y="0" width="100" height="122">
<path d="M100 0H0V121.512H100V0Z" fill="white"/>
</mask>
<g mask="url(#mask75_171_3025)">
<path d="M52.6093 35.3976L51.9894 35.0156L51.7365 35.5668L52.3547 35.9689L52.6093 35.5886C52.802 35.7209 52.9963 35.8751 53.189 36.0108L53.3833 35.7059C53.6581 35.287 53.0365 35.2485 52.8623 35.019L52.6093 35.3976Z" fill="#231F20"/>
</g>
<mask id="mask76_171_3025" style="mask-type:luminance" maskUnits="userSpaceOnUse" x="0" y="0" width="100" height="122">
<path d="M100 0H0V121.512H100V0Z" fill="white"/>
</mask>
<g mask="url(#mask76_171_3025)">
<path d="M33.1994 37.2148C33.6082 37.1762 34.0923 36.9316 34.2482 36.6669C33.8394 36.7976 33.4105 37.1009 32.9464 36.8529C32.9682 36.2263 33.8611 35.98 33.8427 35.3535L33.5696 35.6567C33.4339 35.7706 33.2413 35.7706 33.1056 35.6567L33.1441 35.4657C33.2245 35.3535 33.3786 35.3149 33.454 35.4272L33.5713 35.1424L33.5144 35.0469C33.2245 35.1591 32.9129 35.5026 32.8727 35.8443C32.8928 36.0152 33.0285 36.0353 33.1424 36.1107C32.9481 36.3771 32.8526 36.6418 32.8124 36.9668C32.8291 37.1377 33.0034 37.2701 33.1994 37.2148Z" fill="#231F20"/>
</g>
<mask id="mask77_171_3025" style="mask-type:luminance" maskUnits="userSpaceOnUse" x="0" y="0" width="100" height="122">
<path d="M100 0H0V121.512H100V0Z" fill="white"/>
</mask>
<g mask="url(#mask77_171_3025)">
<path d="M35.3335 36.4775C35.3536 36.5914 35.4122 36.7623 35.5848 36.7237C35.8193 36.6483 35.8193 36.3635 35.8981 36.1541L35.6434 36.4205C35.2581 36.1156 35.6485 35.5443 35.6652 35.1841C35.5111 35.6029 35.2749 35.9832 35.3335 36.4775Z" fill="#231F20"/>
</g>
<mask id="mask78_171_3025" style="mask-type:luminance" maskUnits="userSpaceOnUse" x="0" y="0" width="100" height="122">
<path d="M100 0H0V121.512H100V0Z" fill="white"/>
</mask>
<g mask="url(#mask78_171_3025)">
<path d="M62.1361 36.6756C62.1562 36.7895 62.2718 36.9034 62.4075 36.9034C62.6421 36.8297 62.6823 36.4863 62.6622 36.4109C62.6036 36.4863 62.5265 36.6203 62.4092 36.5985C62.0222 36.2567 62.431 35.7625 62.4712 35.3638C62.2166 35.7441 62.0624 36.1998 62.1361 36.6756Z" fill="#231F20"/>
</g>
<mask id="mask79_171_3025" style="mask-type:luminance" maskUnits="userSpaceOnUse" x="0" y="0" width="100" height="122">
<path d="M100 0H0V121.512H100V0Z" fill="white"/>
</mask>
<g mask="url(#mask79_171_3025)">
<path d="M65.7661 37.1795C66.1146 37.0857 66.4262 36.7238 66.4262 36.362C66.4262 36.1911 66.252 36.0755 66.0777 36.1123C65.9404 36.1894 65.9219 36.3402 65.9219 36.4357L65.9789 36.4172C66.0761 36.3586 66.1732 36.4189 66.2319 36.4943C66.2536 36.7992 65.9403 36.9902 65.7661 37.1795Z" fill="#231F20"/>
</g>
<mask id="mask80_171_3025" style="mask-type:luminance" maskUnits="userSpaceOnUse" x="0" y="0" width="100" height="122">
<path d="M100 0H0V121.512H100V0Z" fill="white"/>
</mask>
<g mask="url(#mask80_171_3025)">
<path d="M70.1484 38.3697C70.187 38.5021 70.3227 38.5976 70.455 38.5993C70.6108 38.5038 70.6711 38.3128 70.6711 38.1235L70.4182 38.3128C70.0697 37.9509 70.383 37.4768 70.4785 37.0981C70.2087 37.4382 70.0898 37.914 70.1484 38.3697Z" fill="#231F20"/>
</g>
<mask id="mask81_171_3025" style="mask-type:luminance" maskUnits="userSpaceOnUse" x="0" y="0" width="100" height="122">
<path d="M100 0H0V121.512H100V0Z" fill="white"/>
</mask>
<g mask="url(#mask81_171_3025)">
<path d="M75.4071 38.2682H75.4657C75.7371 38.1543 76.1074 37.8527 76.0672 37.5076C76.0672 37.3183 75.8762 37.2412 75.7003 37.2412C75.6048 37.2998 75.5646 37.4121 75.5445 37.5461C75.6617 37.4875 75.7958 37.5076 75.8745 37.6232C75.9315 37.9281 75.5428 38.0789 75.4071 38.2682Z" fill="#231F20"/>
</g>
<mask id="mask82_171_3025" style="mask-type:luminance" maskUnits="userSpaceOnUse" x="0" y="0" width="100" height="122">
<path d="M100 0H0V121.512H100V0Z" fill="white"/>
</mask>
<g mask="url(#mask82_171_3025)">
<path d="M23.4145 37.8543C23.3541 38.104 23.1598 37.8158 23.0258 37.8158C22.5818 37.4908 22.6187 38.1777 22.4612 38.367L23.0827 38.615L23.3357 38.1392L23.9154 38.3704C24.0142 38.1626 24.2069 37.9716 24.17 37.7438L23.587 37.4941L23.4145 37.8543Z" fill="#231F20"/>
</g>
<mask id="mask83_171_3025" style="mask-type:luminance" maskUnits="userSpaceOnUse" x="0" y="0" width="100" height="122">
<path d="M100 0H0V121.512H100V0Z" fill="white"/>
</mask>
<g mask="url(#mask83_171_3025)">
<path d="M73.1926 39.1769L73.3669 39.1199C73.6399 38.9473 73.9315 38.6642 73.8544 38.3023C73.8175 38.1683 73.6802 38.1113 73.5662 38.1113C73.3903 38.1298 73.3685 38.3191 73.3903 38.433L73.4087 38.4146C73.526 38.3945 73.6232 38.4162 73.6986 38.5117C73.6986 38.815 73.3484 38.9658 73.1926 39.1769Z" fill="#231F20"/>
</g>
<mask id="mask84_171_3025" style="mask-type:luminance" maskUnits="userSpaceOnUse" x="0" y="0" width="100" height="122">
<path d="M100 0H0V121.512H100V0Z" fill="white"/>
</mask>
<g mask="url(#mask84_171_3025)">
<path d="M21.4891 39.3732C21.5076 39.5056 21.5846 39.658 21.7622 39.601C21.9733 39.4302 22.0135 39.2006 22.0537 38.9745C21.9566 39.0884 21.8979 39.2978 21.722 39.2593C21.4908 38.8404 21.8024 38.4417 21.8611 38.043C21.6265 38.44 21.4908 38.8773 21.4891 39.3732Z" fill="#231F20"/>
</g>
<mask id="mask85_171_3025" style="mask-type:luminance" maskUnits="userSpaceOnUse" x="0" y="0" width="100" height="122">
<path d="M100 0H0V121.512H100V0Z" fill="white"/>
</mask>
<g mask="url(#mask85_171_3025)">
<path d="M77.1331 39.4324H77.2102C77.2889 39.4139 77.4045 39.4508 77.4631 39.548C77.4799 39.8127 77.1515 39.9819 76.9589 40.1729C77.0544 40.193 77.0946 40.136 77.1499 40.1176C77.4229 39.9484 77.7145 39.6803 77.6374 39.3184C77.5771 39.2045 77.443 39.1475 77.3258 39.1274C77.1716 39.1459 77.1331 39.3 77.1331 39.4324Z" fill="#231F20"/>
</g>
<mask id="mask86_171_3025" style="mask-type:luminance" maskUnits="userSpaceOnUse" x="0" y="0" width="100" height="122">
<path d="M100 0H0V121.512H100V0Z" fill="white"/>
</mask>
<g mask="url(#mask86_171_3025)">
<path d="M81.6049 43.3398L81.6077 43.3467L81.5665 43.3577L81.6049 43.3398Z" fill="#020303"/>
</g>
<mask id="mask87_171_3025" style="mask-type:luminance" maskUnits="userSpaceOnUse" x="0" y="0" width="100" height="122">
<path d="M100 0H0V121.512H100V0Z" fill="white"/>
</mask>
<g mask="url(#mask87_171_3025)">
<path d="M54.9499 16.3604C57.6991 15.9516 59.5521 19.3509 59.5521 19.3509C59.1919 13.9077 53.4152 14.7102 53.4152 14.7102C54.8795 13.5592 57.8466 15.0218 57.8466 15.0218C55.6904 11.9911 52.5994 12.8589 52.5994 12.8589C52.9679 12.1603 55.1844 12.3111 55.1844 12.3111C53.1723 10.3291 50.8185 12.3195 50.8185 12.3195C50.9307 11.2271 49.9992 9.5166 49.9992 9.5166C49.9992 9.5166 49.0694 11.2288 49.1816 12.3195C49.1816 12.3195 46.8278 10.3291 44.8157 12.3111C44.8157 12.3111 47.0322 12.1586 47.4024 12.8589C47.4024 12.8589 44.3114 11.9928 42.1552 15.0218C42.1552 15.0218 45.1206 13.5575 46.5865 14.7102C46.5865 14.7102 40.8099 13.9077 40.4497 19.3509C40.4497 19.3509 42.301 15.9516 45.0502 16.3604C45.0502 16.3604 39.1697 18.0274 41.9827 23.2679C41.9827 23.2679 41.8302 18.9254 45.2194 17.9403C45.2194 17.9403 40.763 21.5004 44.7771 24.5043C44.7771 24.5043 43.9462 21.1318 46.2749 19.5905C46.2749 19.5905 44.6264 23.3768 47.8363 26.5683C47.8363 26.5683 47.1779 23.3265 49.2453 21.5456V27.1681C49.2185 27.9756 49.1582 28.9322 49.1213 29.6359C49.0526 30.9075 48.9856 31.844 48.9823 31.8842C48.8097 32.6767 48.808 33.2061 48.808 33.2128V33.2161V33.2211L48.8265 33.5981L48.8499 34.0672L48.7544 34.3235L48.7293 34.3939C48.6221 34.5882 48.5768 34.7658 48.5768 34.9149C48.5768 35.1679 48.6924 35.3304 48.7611 35.4025L48.55 39.3998C47.9737 40.0063 47.4795 41.097 47.4745 41.102L47.3924 41.2829H47.5884H49.5887H50.4063H52.41H52.6061L52.5223 41.102C52.5189 41.0986 52.0214 40.0063 51.4467 39.3982L51.2373 35.4025C51.306 35.3287 51.4199 35.1679 51.4199 34.9149C51.4199 34.7658 51.3763 34.5882 51.2674 34.3939L51.2155 34.2481L51.1468 34.0655L51.172 33.5478L51.1887 33.2195V33.2144V33.2111C51.1887 33.2044 51.187 32.6767 51.0145 31.8842C51.0111 31.8574 50.9441 30.9175 50.8754 29.6359C50.8386 28.9306 50.7766 27.9723 50.7514 27.1648V21.5423C52.8205 23.3232 52.1604 26.565 52.1604 26.565C55.3687 23.3751 53.7218 19.5871 53.7218 19.5871C56.0506 21.1285 55.2196 24.5009 55.2196 24.5009C59.2337 21.4954 54.779 17.9369 54.779 17.9369C58.1649 18.922 58.0124 23.2645 58.0124 23.2645C60.832 18.0257 54.9499 16.3604 54.9499 16.3604Z" fill="#04814F"/>
</g>
<mask id="mask88_171_3025" style="mask-type:luminance" maskUnits="userSpaceOnUse" x="0" y="0" width="100" height="122">
<path d="M100 0H0V121.512H100V0Z" fill="white"/>
</mask>
<g mask="url(#mask88_171_3025)">
<path d="M54.9499 16.3604C57.6991 15.9516 59.5521 19.3509 59.5521 19.3509C59.1919 13.9077 53.4152 14.7102 53.4152 14.7102C54.8795 13.5592 57.8466 15.0218 57.8466 15.0218C55.6904 11.9911 52.5994 12.8589 52.5994 12.8589C52.9679 12.1603 55.1844 12.3111 55.1844 12.3111C53.1723 10.3291 50.8185 12.3195 50.8185 12.3195C50.9307 11.2271 49.9992 9.5166 49.9992 9.5166C49.9992 9.5166 49.0694 11.2288 49.1816 12.3195C49.1816 12.3195 46.8278 10.3291 44.8157 12.3111C44.8157 12.3111 47.0322 12.1586 47.4024 12.8589C47.4024 12.8589 44.3114 11.9928 42.1552 15.0218C42.1552 15.0218 45.1206 13.5575 46.5865 14.7102C46.5865 14.7102 40.8099 13.9077 40.4497 19.3509C40.4497 19.3509 42.301 15.9516 45.0502 16.3604C45.0502 16.3604 39.1697 18.0274 41.9827 23.2679C41.9827 23.2679 41.8302 18.9254 45.2194 17.9403C45.2194 17.9403 40.763 21.5004 44.7771 24.5043C44.7771 24.5043 43.9462 21.1318 46.2749 19.5905C46.2749 19.5905 44.6264 23.3768 47.8363 26.5683C47.8363 26.5683 47.1779 23.3265 49.2453 21.5456V27.1681C49.2185 27.9756 49.1582 28.9322 49.1213 29.6359C49.0526 30.9075 48.9856 31.844 48.9823 31.8842C48.8097 32.6767 48.808 33.2061 48.808 33.2128V33.2161V33.2211L48.8265 33.5981L48.8499 34.0672L48.7544 34.3235L48.7293 34.3939C48.6221 34.5882 48.5768 34.7658 48.5768 34.9149C48.5768 35.1679 48.6924 35.3304 48.7611 35.4025L48.55 39.3998C47.9737 40.0063 47.4795 41.097 47.4745 41.102L47.3924 41.2829H47.5884H49.5887H50.4063H52.41H52.6061L52.5223 41.102C52.5189 41.0986 52.0214 40.0063 51.4467 39.3982L51.2373 35.4025C51.306 35.3287 51.4199 35.1679 51.4199 34.9149C51.4199 34.7658 51.3763 34.5882 51.2674 34.3939L51.2155 34.2481L51.1468 34.0655L51.172 33.5478L51.1887 33.2195V33.2144V33.2111C51.1887 33.2044 51.187 32.6767 51.0145 31.8842C51.0111 31.8574 50.9441 30.9175 50.8754 29.6359C50.8386 28.9306 50.7766 27.9723 50.7514 27.1648V21.5423C52.8205 23.3232 52.1604 26.565 52.1604 26.565C55.3687 23.3751 53.7218 19.5871 53.7218 19.5871C56.0506 21.1285 55.2196 24.5009 55.2196 24.5009C59.2337 21.4954 54.779 17.9369 54.779 17.9369C58.1649 18.922 58.0124 23.2645 58.0124 23.2645C60.832 18.0257 54.9499 16.3604 54.9499 16.3604Z" stroke="#231F20" stroke-width="1.3271" stroke-miterlimit="10"/>
</g>
<mask id="mask89_171_3025" style="mask-type:luminance" maskUnits="userSpaceOnUse" x="0" y="0" width="100" height="122">
<path d="M100 0H0V121.512H100V0Z" fill="white"/>
</mask>
<g mask="url(#mask89_171_3025)">
<path d="M63.4015 40.9876C62.5286 41.1434 61.6591 41.3327 60.803 41.5672C59.8213 41.8319 58.8546 42.1603 57.913 42.549C56.8643 42.9829 55.8473 43.4956 54.8723 44.0786C53.7883 44.7236 52.7529 45.4524 51.7595 46.2314C50.6671 47.0858 49.6267 47.9989 48.6132 48.9404C48.0787 49.433 47.5543 49.9339 47.03 50.4365C46.6446 50.8101 46.2593 51.1921 45.8639 51.5506L45.621 51.7617L45.5506 51.822L45.5858 51.9075C45.6947 52.1755 45.9426 52.5977 46.4553 52.6899L46.5424 52.7066L46.5877 52.6279C46.5877 52.6279 46.6228 52.5609 46.6982 52.4553C46.7719 52.3498 46.8808 52.2074 47.0166 52.0667C47.288 51.7852 47.6683 51.5171 48.0988 51.5188C48.1859 51.5188 48.2764 51.5305 48.3702 51.5523C48.9197 51.693 49.2531 52.1789 49.2531 52.7016C49.2531 53.1523 49.0085 53.6348 48.4021 53.9564L48.3719 53.9682L48.2647 54.0034C48.1675 54.0302 48.0218 54.0553 47.8358 54.0553C47.2494 54.0553 46.2425 53.8006 44.986 52.4017L44.9123 52.3196L44.8218 52.3816C44.7297 52.4453 44.6392 52.5056 44.5504 52.5609C44.011 52.8976 43.4631 53.2143 42.9103 53.5292C42.1681 53.9548 41.5298 54.1223 41.0138 54.1223C39.9784 54.1173 39.4272 53.4656 39.4255 52.7837C39.4255 52.6614 39.4423 52.5408 39.4791 52.4201C39.6886 51.7383 40.1443 51.5976 40.5614 51.5892C40.8496 51.5875 41.1109 51.6746 41.1813 51.7115C41.2768 51.7584 41.3958 51.8539 41.4845 51.9376L41.6353 52.0901L41.6621 52.1203L41.699 52.1303L41.9302 52.1873V52.1856L42.0223 52.199C42.2468 52.194 42.8148 52.065 44.0612 50.9559L44.1048 50.9174V50.8621V50.8436C44.1048 50.5756 44.0328 50.2388 43.7513 49.9859L43.6843 49.9256L43.6055 49.9691L43.51 50.0177C43.4464 50.0462 43.3559 50.0864 43.2453 50.1266C43.0242 50.207 42.7243 50.2858 42.4244 50.2858C42.1027 50.2841 41.7861 50.1986 41.5315 49.9323C41.307 49.6977 41.2014 49.4079 41.1997 49.118C41.2048 48.4931 41.6873 47.8716 42.6053 47.8665L42.7628 47.8716C43.3274 47.9151 43.6591 48.2904 43.9121 48.793C44.1601 49.2939 44.3008 49.8971 44.4767 50.3293L44.5488 50.5019L44.6811 50.3712L44.8838 50.1702L44.8855 50.1685C54.7433 39.2955 66.0619 40.5872 66.3283 40.5955C66.0686 40.6207 65.8073 40.6374 65.5476 40.6692C64.8305 40.7564 64.1135 40.8619 63.4015 40.9876Z" fill="#1C7A62"/>
</g>
<mask id="mask90_171_3025" style="mask-type:luminance" maskUnits="userSpaceOnUse" x="0" y="0" width="100" height="122">
<path d="M100 0H0V121.512H100V0Z" fill="white"/>
</mask>
<g mask="url(#mask90_171_3025)">
<path d="M63.4015 40.9876C62.5286 41.1434 61.6591 41.3327 60.803 41.5672C59.8213 41.8319 58.8546 42.1603 57.913 42.549C56.8643 42.9829 55.8473 43.4956 54.8723 44.0786C53.7883 44.7236 52.7529 45.4524 51.7595 46.2314C50.6671 47.0858 49.6267 47.9989 48.6132 48.9404C48.0787 49.433 47.5543 49.9339 47.03 50.4365C46.6446 50.8101 46.2593 51.1921 45.8639 51.5506L45.621 51.7617L45.5506 51.822L45.5858 51.9075C45.6947 52.1755 45.9426 52.5977 46.4553 52.6899L46.5424 52.7066L46.5877 52.6279C46.5877 52.6279 46.6228 52.5609 46.6982 52.4553C46.7719 52.3498 46.8808 52.2074 47.0165 52.0667C47.288 51.7852 47.6683 51.5171 48.0988 51.5188C48.1859 51.5188 48.2764 51.5305 48.3702 51.5523C48.9197 51.693 49.2531 52.1789 49.2531 52.7016C49.2531 53.1523 49.0085 53.6348 48.4021 53.9564L48.3719 53.9682L48.2647 54.0034C48.1675 54.0302 48.0218 54.0553 47.8358 54.0553C47.2494 54.0553 46.2425 53.8006 44.986 52.4017L44.9123 52.3196L44.8218 52.3816C44.7297 52.4453 44.6392 52.5056 44.5504 52.5609C44.011 52.8976 43.4631 53.2143 42.9103 53.5292C42.1681 53.9548 41.5298 54.1223 41.0138 54.1223C39.9784 54.1173 39.4272 53.4656 39.4255 52.7837C39.4255 52.6614 39.4423 52.5408 39.4791 52.4201C39.6886 51.7383 40.1443 51.5976 40.5614 51.5892C40.8496 51.5875 41.1109 51.6746 41.1813 51.7115C41.2768 51.7584 41.3958 51.8539 41.4845 51.9376L41.6353 52.0901L41.6621 52.1203L41.699 52.1303L41.9302 52.1873V52.1856L42.0223 52.199C42.2468 52.194 42.8148 52.065 44.0612 50.9559L44.1048 50.9174V50.8621V50.8436C44.1048 50.5756 44.0328 50.2388 43.7513 49.9859L43.6843 49.9256L43.6055 49.9691L43.51 50.0177C43.4464 50.0462 43.3559 50.0864 43.2453 50.1266C43.0242 50.207 42.7243 50.2858 42.4244 50.2858C42.1027 50.2841 41.7861 50.1986 41.5315 49.9323C41.307 49.6977 41.2014 49.4079 41.1997 49.118C41.2048 48.4931 41.6873 47.8716 42.6053 47.8665L42.7628 47.8716C43.3274 47.9151 43.6591 48.2904 43.9121 48.793C44.1601 49.2939 44.3008 49.8971 44.4767 50.3293L44.5488 50.5019L44.6811 50.3712L44.8838 50.1702L44.8855 50.1685C54.7433 39.2955 66.0619 40.5872 66.3283 40.5955C66.0686 40.6207 65.8073 40.6374 65.5476 40.6692C64.8305 40.7564 64.1135 40.8619 63.4015 40.9876Z" stroke="#020303" stroke-width="1.3271" stroke-miterlimit="10" stroke-linejoin="round"/>
</g>
<mask id="mask91_171_3025" style="mask-type:luminance" maskUnits="userSpaceOnUse" x="0" y="0" width="100" height="122">
<path d="M100 0H0V121.512H100V0Z" fill="white"/>
</mask>
<g mask="url(#mask91_171_3025)">
<path d="M36.5986 40.9876C37.4714 41.1434 38.3409 41.3327 39.197 41.5672C40.1788 41.8319 41.1455 42.1603 42.087 42.549C43.1358 42.9829 44.1527 43.4956 45.1278 44.0786C46.2117 44.7236 47.2471 45.4524 48.2406 46.2314C49.3312 47.0858 50.3733 47.9989 51.3869 48.9404C51.9213 49.433 52.4474 49.9339 52.9701 50.4365C53.3554 50.8101 53.7408 51.1921 54.1361 51.5506L54.3791 51.7617L54.4494 51.822L54.4143 51.9075C54.307 52.1755 54.0574 52.5977 53.5447 52.6899L53.4576 52.7066L53.4124 52.6279C53.4124 52.6279 53.3772 52.5609 53.3018 52.4553C53.2298 52.3498 53.1209 52.2074 52.9852 52.0667C52.7138 51.7852 52.3335 51.5171 51.9029 51.5188C51.8158 51.5188 51.7253 51.5305 51.6315 51.5523C51.082 51.693 50.7486 52.1789 50.7486 52.7016C50.7486 53.1523 50.9932 53.6348 51.5997 53.9564L51.6281 53.9682L51.7354 54.0034C51.8325 54.0302 51.9783 54.0553 52.1642 54.0553C52.7506 54.0553 53.7575 53.8006 55.014 52.4017L55.0877 52.3196L55.1782 52.3816C55.2704 52.4453 55.3608 52.5056 55.4496 52.5609C55.9891 52.8976 56.5369 53.2143 57.0898 53.5292C57.832 53.9548 58.4703 54.1223 58.9863 54.1223C60.0217 54.1173 60.5728 53.4656 60.5745 52.7837C60.5745 52.6614 60.5578 52.5408 60.5209 52.4201C60.3115 51.7383 59.8558 51.5976 59.4386 51.5892C59.1505 51.5875 58.8891 51.6746 58.8187 51.7115C58.7233 51.7584 58.6043 51.8539 58.5172 51.9376L58.3664 52.0901L58.3396 52.1203L58.3027 52.1303L58.0715 52.1873V52.1856L57.9794 52.199C57.7549 52.194 57.1853 52.065 55.9405 50.9559L55.8969 50.9174V50.8621V50.8436C55.8969 50.5756 55.969 50.2388 56.2504 49.9859L56.3175 49.9256L56.3962 49.9691L56.4917 50.0177C56.5553 50.0462 56.6458 50.0864 56.7564 50.1266C56.9792 50.207 57.2774 50.2858 57.5773 50.2858C57.899 50.2841 58.2156 50.1986 58.4703 49.9323C58.6948 49.6977 58.8003 49.4079 58.8003 49.118C58.797 48.4931 58.3145 47.8716 57.3964 47.8665L57.2389 47.8716C56.6743 47.9151 56.3426 48.2904 56.0913 48.793C55.8416 49.2939 55.7009 49.8971 55.5267 50.3293L55.4546 50.5019L55.3223 50.3712L55.1212 50.1702L55.1196 50.1685C45.2618 39.2955 33.9431 40.5872 33.6768 40.5955C33.9364 40.6207 34.1995 40.6374 34.4575 40.6692C35.1695 40.7564 35.8865 40.8619 36.5986 40.9876Z" fill="#1C7A62"/>
</g>
<mask id="mask92_171_3025" style="mask-type:luminance" maskUnits="userSpaceOnUse" x="0" y="0" width="100" height="122">
<path d="M100 0H0V121.512H100V0Z" fill="white"/>
</mask>
<g mask="url(#mask92_171_3025)">
<path d="M36.5986 40.9876C37.4714 41.1434 38.3409 41.3327 39.197 41.5672C40.1788 41.8319 41.1455 42.1603 42.087 42.549C43.1358 42.9829 44.1527 43.4956 45.1278 44.0786C46.2117 44.7236 47.2471 45.4524 48.2406 46.2314C49.3312 47.0858 50.3733 47.9989 51.3869 48.9404C51.9213 49.433 52.4474 49.9339 52.9701 50.4365C53.3554 50.8101 53.7408 51.1921 54.1361 51.5506L54.3791 51.7617L54.4494 51.822L54.4143 51.9075C54.307 52.1755 54.0574 52.5977 53.5447 52.6899L53.4576 52.7066L53.4124 52.6279C53.4124 52.6279 53.3772 52.5609 53.3018 52.4553C53.2298 52.3498 53.1209 52.2074 52.9852 52.0667C52.7138 51.7852 52.3335 51.5171 51.9029 51.5188C51.8158 51.5188 51.7253 51.5305 51.6315 51.5523C51.082 51.693 50.7486 52.1789 50.7486 52.7016C50.7486 53.1523 50.9932 53.6348 51.5997 53.9564L51.6281 53.9682L51.7354 54.0034C51.8325 54.0302 51.9783 54.0553 52.1642 54.0553C52.7506 54.0553 53.7575 53.8006 55.014 52.4017L55.0877 52.3196L55.1782 52.3816C55.2704 52.4453 55.3608 52.5056 55.4496 52.5609C55.9891 52.8976 56.5369 53.2143 57.0898 53.5292C57.832 53.9548 58.4703 54.1223 58.9863 54.1223C60.0217 54.1173 60.5728 53.4656 60.5745 52.7837C60.5745 52.6614 60.5578 52.5408 60.5209 52.4201C60.3115 51.7383 59.8558 51.5976 59.4386 51.5892C59.1505 51.5875 58.8891 51.6746 58.8187 51.7115C58.7233 51.7584 58.6043 51.8539 58.5172 51.9376L58.3664 52.0901L58.3396 52.1203L58.3027 52.1303L58.0715 52.1873V52.1856L57.9794 52.199C57.7549 52.194 57.1853 52.065 55.9405 50.9559L55.8969 50.9174V50.8621V50.8436C55.8969 50.5756 55.969 50.2388 56.2504 49.9859L56.3175 49.9256L56.3962 49.9691L56.4917 50.0177C56.5553 50.0462 56.6458 50.0864 56.7564 50.1266C56.9792 50.207 57.2774 50.2858 57.5773 50.2858C57.899 50.2841 58.2156 50.1986 58.4703 49.9323C58.6948 49.6977 58.8003 49.4079 58.8003 49.118C58.797 48.4931 58.3145 47.8716 57.3964 47.8665L57.2389 47.8716C56.6743 47.9151 56.3426 48.2904 56.0913 48.793C55.8416 49.2939 55.7009 49.8971 55.5267 50.3293L55.4546 50.5019L55.3223 50.3712L55.1212 50.1702L55.1196 50.1685C45.2618 39.2955 33.9431 40.5872 33.6768 40.5955C33.9364 40.6207 34.1995 40.6374 34.4575 40.6692C35.1695 40.7564 35.8865 40.8619 36.5986 40.9876Z" stroke="#020303" stroke-width="1.3271" stroke-miterlimit="10" stroke-linejoin="round"/>
</g>
<mask id="mask93_171_3025" style="mask-type:luminance" maskUnits="userSpaceOnUse" x="0" y="0" width="100" height="122">
<path d="M100 0H0V121.512H100V0Z" fill="white"/>
</mask>
<g mask="url(#mask93_171_3025)">
<path d="M78.0516 69.9521C77.7048 70.629 76.7449 72.3043 75.0494 73.8959C73.1077 75.7154 70.2177 77.4225 66.1533 77.4242C61.8175 77.4242 58.9644 75.4842 57.1751 73.5374C56.2788 72.564 55.6539 71.5906 55.2551 70.8602C55.0558 70.495 54.91 70.19 54.8179 69.9806L54.8062 69.9521H78.0516Z" fill="#04814F"/>
</g>
<mask id="mask94_171_3025" style="mask-type:luminance" maskUnits="userSpaceOnUse" x="0" y="0" width="100" height="122">
<path d="M100 0H0V121.512H100V0Z" fill="white"/>
</mask>
<g mask="url(#mask94_171_3025)">
<path d="M78.0516 69.9521C77.7048 70.629 76.7449 72.3043 75.0494 73.8959C73.1077 75.7154 70.2177 77.4225 66.1533 77.4242C61.8175 77.4242 58.9644 75.4842 57.1751 73.5374C56.2788 72.564 55.6539 71.5906 55.2551 70.8602C55.0558 70.495 54.91 70.19 54.8179 69.9806L54.8062 69.9521H78.0516Z" stroke="#020303" stroke-width="1.3271" stroke-miterlimit="10" stroke-linejoin="round"/>
</g>
<mask id="mask95_171_3025" style="mask-type:luminance" maskUnits="userSpaceOnUse" x="0" y="0" width="100" height="122">
<path d="M100 0H0V121.512H100V0Z" fill="white"/>
</mask>
<g mask="url(#mask95_171_3025)">
<path d="M66.4259 40.6206L54.7805 69.6293H78.0729L66.4259 40.6206Z" stroke="#020303" stroke-width="1.3271" stroke-miterlimit="10" stroke-linejoin="round"/>
</g>
<mask id="mask96_171_3025" style="mask-type:luminance" maskUnits="userSpaceOnUse" x="0" y="0" width="100" height="122">
<path d="M100 0H0V121.512H100V0Z" fill="white"/>
</mask>
<g mask="url(#mask96_171_3025)">
<path d="M45.2949 69.9521C44.9481 70.629 43.9881 72.3043 42.2927 73.8959C40.3509 75.7154 37.461 77.4225 33.3966 77.4242C29.0608 77.4242 26.2076 75.4842 24.4183 73.5374C23.5237 72.564 22.8988 71.5906 22.4984 70.8602C22.2974 70.495 22.1533 70.19 22.0595 69.9806L22.0477 69.9521H45.2949Z" fill="#04814F"/>
</g>
<mask id="mask97_171_3025" style="mask-type:luminance" maskUnits="userSpaceOnUse" x="0" y="0" width="100" height="122">
<path d="M100 0H0V121.512H100V0Z" fill="white"/>
</mask>
<g mask="url(#mask97_171_3025)">
<path d="M45.2949 69.9521C44.9481 70.629 43.9881 72.3043 42.2927 73.8959C40.3509 75.7154 37.461 77.4225 33.3966 77.4242C29.0608 77.4242 26.2076 75.4842 24.4183 73.5374C23.5237 72.564 22.8988 71.5906 22.4984 70.8602C22.2974 70.495 22.1533 70.19 22.0595 69.9806L22.0477 69.9521H45.2949Z" stroke="#020303" stroke-width="1.3271" stroke-miterlimit="10" stroke-linejoin="round"/>
</g>
<mask id="mask98_171_3025" style="mask-type:luminance" maskUnits="userSpaceOnUse" x="0" y="0" width="100" height="122">
<path d="M100 0H0V121.512H100V0Z" fill="white"/>
</mask>
<g mask="url(#mask98_171_3025)">
<path d="M33.6711 40.6206L22.0258 69.6293H45.3182L33.6711 40.6206Z" stroke="#020303" stroke-width="1.3271" stroke-miterlimit="10" stroke-linejoin="round"/>
</g>
<defs>
<linearGradient id="paint0_linear_171_3025" x1="9.72286" y1="66.057" x2="90.2781" y2="66.057" gradientUnits="userSpaceOnUse">
<stop stop-color="#FDCA5E"/>
<stop offset="0.1157" stop-color="#FBC558"/>
<stop offset="0.2678" stop-color="#F4B845"/>
<stop offset="0.4394" stop-color="#E9A328"/>
<stop offset="0.5" stop-color="#E59A1B"/>
<stop offset="0.5606" stop-color="#E9A328"/>
<stop offset="0.7322" stop-color="#F4B845"/>
<stop offset="0.8843" stop-color="#FBC558"/>
<stop offset="1" stop-color="#FDCA5E"/>
</linearGradient>
</defs>
</svg>
